<svg width="755" height="210" viewBox="0 0 755 210" fill="none" xmlns="http://www.w3.org/2000/svg">
<circle cx="50.5" cy="47.5" r="45.5" fill="#BE9EB2"/>
<g clip-path="url(#clip0)">
<path d="M49.7494 70.9396C49.7494 72.0071 50.6149 72.8726 51.6824 72.8726H67.1463C68.2138 72.8726 69.0793 72.0071 69.0793 70.9396V55.4757C69.0623 51.1114 66.1213 47.3002 61.9042 46.176C66.362 41.622 66.31 34.3233 61.7872 29.8334C57.2652 25.3436 49.9665 25.3436 45.4445 29.8334C40.9216 34.3233 40.8697 41.622 45.3275 46.176C41.1095 47.3002 38.1694 51.1114 38.1515 55.4757V62.1213C38.1515 63.1888 39.017 64.0543 40.0844 64.0543C41.1519 64.0543 42.0174 63.1888 42.0174 62.1213V55.4757C42.0174 52.2733 44.6139 49.6768 47.8164 49.6768H59.4143C62.6177 49.6768 65.2133 52.2733 65.2133 55.4757V69.0066H51.6824C50.6149 69.0066 49.7494 69.8721 49.7494 70.9396ZM53.6154 30.3469C57.8863 30.3469 61.3473 33.8089 61.3473 38.0788C61.3473 42.3488 57.8863 45.8108 53.6154 45.8108C49.3454 45.8108 45.8834 42.3488 45.8834 38.0788C45.8834 33.8089 49.3454 30.3469 53.6154 30.3469Z" fill="#455136"/>
<path d="M59.4143 59.3417C60.4818 59.3417 61.3473 58.4762 61.3473 57.4087C61.3473 56.3412 60.4818 55.4757 59.4143 55.4757H55.5483C54.4809 55.4757 53.6154 56.3412 53.6154 57.4087C53.6154 58.4762 54.4809 59.3417 55.5483 59.3417H59.4143Z" fill="#455136"/>
<path d="M127.303 108.896L104.067 85.6598C102.305 83.9864 99.7042 83.5513 97.4946 84.5612L87.2502 74.3167C99.5211 56.1525 95.1549 31.5267 77.3861 18.6895C59.6173 5.85133 34.866 9.43982 21.4747 26.7952C8.08446 44.1506 10.8914 69.0029 27.8164 82.934C28.6404 83.6126 29.8589 83.4956 30.5375 82.6707C31.2171 81.8467 31.0991 80.6282 30.2751 79.9496C14.7055 67.1973 12.2798 44.2978 24.8339 28.5677C37.387 12.8377 60.2535 10.1222 76.1421 22.4752C92.0298 34.8282 95.035 57.6588 82.8849 73.7023C82.4215 74.3167 81.9496 74.9217 81.4484 75.5031C81.4059 75.556 81.3578 75.6022 81.3134 75.6541C80.1893 76.9482 78.9755 78.1619 77.6815 79.286C77.6211 79.3389 77.5654 79.3965 77.5041 79.4484C76.9236 79.942 76.3318 80.4149 75.7268 80.866C69.3729 85.7089 61.605 88.3337 53.6154 88.3365C53.0029 88.3365 52.3941 88.3054 51.7891 88.2733C50.7216 88.2139 49.8089 89.0322 49.7494 90.0996C49.6909 91.1671 50.5092 92.0798 51.5767 92.1393C52.2553 92.1752 52.9292 92.2082 53.6154 92.2082C61.7089 92.2167 69.6183 89.7929 76.3167 85.2492L87.6655 96.598C88.4205 97.3531 89.6438 97.3531 90.3988 96.598L98.5999 88.397C99.3663 87.6683 100.569 87.6683 101.335 88.397L124.57 111.635C125.323 112.389 125.323 113.612 124.57 114.366L116.371 122.568C116.008 122.931 115.515 123.135 115.003 123.135C114.489 123.135 113.998 122.931 113.635 122.568L98.4073 107.34C97.6485 106.607 96.4432 106.618 95.6976 107.363C94.9519 108.109 94.9415 109.314 95.674 110.073L110.902 125.301C113.166 127.566 116.839 127.566 119.104 125.301L127.303 117.101C129.568 114.837 129.568 111.164 127.303 108.9V108.896ZM84.9085 77.4361L94.4989 87.0265L89.0321 92.4942L79.4408 82.9028C81.4314 81.2577 83.2624 79.4267 84.9085 77.4361Z" fill="#455136"/>
<path d="M53.6154 80.6046C52.5479 80.6046 51.6824 81.4701 51.6824 82.5376C51.6824 83.6051 52.5479 84.4706 53.6154 84.4706C63.789 84.5036 73.4002 79.808 79.6258 71.7617C85.8523 63.7164 87.9863 53.2341 85.4021 43.3945C85.135 42.361 84.0807 41.739 83.0462 42.0062C82.0127 42.2723 81.3907 43.3275 81.6578 44.361C83.9448 53.0425 82.0656 62.295 76.5715 69.3955C71.0774 76.497 62.5941 80.6386 53.6154 80.6046Z" fill="#455136"/>
<path d="M69.5144 22.8565C54.899 14.7546 36.529 18.9207 26.8385 32.5356C17.1481 46.1496 19.2274 64.8707 31.6682 76.0269C32.1807 76.5017 32.9084 76.6631 33.5729 76.4498C34.2364 76.2365 34.7347 75.6824 34.8754 74.9991C35.016 74.3148 34.7772 73.6088 34.2505 73.1511C23.2831 63.3049 21.4549 46.7952 30.0014 34.7877C38.5479 22.7792 54.747 19.101 67.6418 26.2393C68.5753 26.7565 69.7522 26.4186 70.2694 25.4842C70.7867 24.5507 70.4488 23.3738 69.5144 22.8565Z" fill="#455136"/>
<path d="M30.4195 113.465C29.352 113.465 28.4865 114.331 28.4865 115.398C28.4865 116.466 29.352 117.331 30.4195 117.331H42.0174C43.0849 117.331 43.9504 116.466 43.9504 115.398C43.9504 114.331 43.0849 113.465 42.0174 113.465H30.4195Z" fill="#455136"/>
<path d="M67.1463 96.0685H45.8834V70.9396C45.8872 70.0619 45.2983 69.2926 44.4507 69.0661C43.6031 68.8386 42.7084 69.2115 42.2732 69.9731L27.3653 96.0685H24.6206C21.4181 96.0685 18.8216 98.665 18.8216 101.867V121.197C18.8216 124.4 21.4181 126.996 24.6206 126.996H67.1463C70.3497 126.996 72.9453 124.4 72.9453 121.197V117.331C72.9453 116.264 72.0798 115.398 71.0123 115.398C69.9448 115.398 69.0793 116.264 69.0793 117.331V121.197C69.0793 122.265 68.2138 123.13 67.1463 123.13H24.6206C23.5531 123.13 22.6876 122.265 22.6876 121.197V101.867C22.6876 100.8 23.5531 99.9345 24.6206 99.9345H28.4865C29.1784 99.9364 29.8183 99.5673 30.1647 98.968L42.0175 78.2195V98.0015C42.0175 99.069 42.883 99.9345 43.9504 99.9345H67.1463C68.2138 99.9345 69.0793 100.8 69.0793 101.867V105.733C69.0793 106.801 69.9448 107.666 71.0123 107.666C72.0798 107.666 72.9453 106.801 72.9453 105.733V101.867C72.9453 98.665 70.3497 96.0685 67.1463 96.0685Z" fill="#455136"/>
<path d="M49.7494 107.666C49.7494 106.599 48.8839 105.733 47.8164 105.733H34.2855C33.218 105.733 32.3525 106.599 32.3525 107.666C32.3525 108.734 33.218 109.599 34.2855 109.599H47.8164C48.8839 109.599 49.7494 108.734 49.7494 107.666Z" fill="#455136"/>
<path d="M65.2133 107.666C65.2133 106.599 64.3478 105.733 63.2803 105.733H55.5483C54.4809 105.733 53.6154 106.599 53.6154 107.666C53.6154 108.734 54.4809 109.599 55.5483 109.599H63.2803C64.3478 109.599 65.2133 108.734 65.2133 107.666Z" fill="#455136"/>
<path d="M49.7494 117.331H57.4813C58.5488 117.331 59.4143 116.466 59.4143 115.398C59.4143 114.331 58.5488 113.465 57.4813 113.465H49.7494C48.6819 113.465 47.8164 114.331 47.8164 115.398C47.8164 116.466 48.6819 117.331 49.7494 117.331Z" fill="#455136"/>
<path d="M98.0741 26.4809H115.471C116.538 26.4809 117.404 25.6154 117.404 24.5479C117.404 23.4804 116.538 22.6149 115.471 22.6149H98.0741C97.0066 22.6149 96.1411 23.4804 96.1411 24.5479C96.1411 25.6154 97.0066 26.4809 98.0741 26.4809Z" fill="#455136"/>
<path d="M98.0741 36.1459H115.471C116.538 36.1459 117.404 35.2804 117.404 34.2129C117.404 33.1454 116.538 32.2799 115.471 32.2799H98.0741C97.0066 32.2799 96.1411 33.1454 96.1411 34.2129C96.1411 35.2804 97.0066 36.1459 98.0741 36.1459Z" fill="#455136"/>
<path d="M115.471 41.9448H105.806C104.739 41.9448 103.873 42.8103 103.873 43.8778C103.873 44.9453 104.739 45.8108 105.806 45.8108H115.471C116.539 45.8108 117.404 44.9453 117.404 43.8778C117.404 42.8103 116.539 41.9448 115.471 41.9448Z" fill="#455136"/>
<path d="M115.471 51.6097H105.806C104.739 51.6097 103.873 52.4752 103.873 53.5427C103.873 54.6102 104.739 55.4757 105.806 55.4757H115.471C116.539 55.4757 117.404 54.6102 117.404 53.5427C117.404 52.4752 116.539 51.6097 115.471 51.6097Z" fill="#455136"/>
<path d="M101.94 67.0737C100.873 67.0737 100.007 67.9392 100.007 69.0066C100.007 70.0741 100.873 70.9396 101.94 70.9396H113.538C115.673 70.9396 117.404 69.2086 117.404 67.0737V63.2077C117.404 61.0727 115.673 59.3417 113.538 59.3417H101.94C100.873 59.3417 100.007 60.2072 100.007 61.2747C100.007 62.3422 100.873 63.2077 101.94 63.2077H113.538V67.0737H101.94Z" fill="#455136"/>
</g>
<path d="M29.2215 195V181.88H33.3215C33.9882 181.88 34.6015 181.947 35.1615 182.08C35.7348 182.2 36.2215 182.407 36.6215 182.7C37.0348 182.993 37.3548 183.373 37.5815 183.84C37.8082 184.307 37.9215 184.88 37.9215 185.56C37.9215 186.587 37.6548 187.407 37.1215 188.02C36.5882 188.633 35.8682 189.053 34.9615 189.28L38.3015 195H36.4215L33.2615 189.46H30.8815V195H29.2215ZM30.8815 188.1H33.0815C34.1082 188.1 34.8948 187.893 35.4415 187.48C35.9882 187.053 36.2615 186.413 36.2615 185.56C36.2615 184.693 35.9882 184.087 35.4415 183.74C34.8948 183.393 34.1082 183.22 33.0815 183.22H30.8815V188.1ZM44.7929 195.24C44.1396 195.24 43.5262 195.127 42.9529 194.9C42.3929 194.66 41.8996 194.327 41.4729 193.9C41.0596 193.46 40.7329 192.927 40.4929 192.3C40.2529 191.673 40.1329 190.96 40.1329 190.16C40.1329 189.36 40.2529 188.647 40.4929 188.02C40.7462 187.38 41.0729 186.84 41.4729 186.4C41.8862 185.96 42.3529 185.627 42.8729 185.4C43.3929 185.16 43.9329 185.04 44.4929 185.04C45.1062 185.04 45.6529 185.147 46.1329 185.36C46.6262 185.573 47.0329 185.88 47.3529 186.28C47.6862 186.68 47.9396 187.16 48.1129 187.72C48.2862 188.28 48.3729 188.907 48.3729 189.6C48.3729 189.773 48.3662 189.947 48.3529 190.12C48.3529 190.28 48.3396 190.42 48.3129 190.54H41.7529C41.8196 191.58 42.1396 192.407 42.7129 193.02C43.2996 193.62 44.0596 193.92 44.9929 193.92C45.4596 193.92 45.8862 193.853 46.2729 193.72C46.6729 193.573 47.0529 193.387 47.4129 193.16L47.9929 194.24C47.5662 194.507 47.0929 194.74 46.5729 194.94C46.0529 195.14 45.4596 195.24 44.7929 195.24ZM41.7329 189.36H46.9329C46.9329 188.373 46.7196 187.627 46.2929 187.12C45.8796 186.6 45.2929 186.34 44.5329 186.34C44.1862 186.34 43.8529 186.407 43.5329 186.54C43.2262 186.673 42.9462 186.873 42.6929 187.14C42.4396 187.393 42.2262 187.707 42.0529 188.08C41.8929 188.453 41.7862 188.88 41.7329 189.36ZM53.9148 195.24C53.2214 195.24 52.5614 195.113 51.9348 194.86C51.3081 194.607 50.7614 194.287 50.2948 193.9L51.1148 192.8C51.5414 193.147 51.9748 193.427 52.4148 193.64C52.8681 193.853 53.3881 193.96 53.9748 193.96C54.6148 193.96 55.0948 193.813 55.4148 193.52C55.7348 193.227 55.8948 192.867 55.8948 192.44C55.8948 192.187 55.8281 191.967 55.6948 191.78C55.5614 191.593 55.3881 191.433 55.1748 191.3C54.9748 191.153 54.7414 191.027 54.4748 190.92C54.2081 190.813 53.9414 190.707 53.6748 190.6C53.3281 190.48 52.9814 190.347 52.6348 190.2C52.2881 190.04 51.9748 189.853 51.6948 189.64C51.4281 189.413 51.2081 189.153 51.0348 188.86C50.8614 188.567 50.7748 188.213 50.7748 187.8C50.7748 187.413 50.8481 187.053 50.9948 186.72C51.1548 186.373 51.3748 186.08 51.6548 185.84C51.9481 185.587 52.3014 185.393 52.7148 185.26C53.1281 185.113 53.5948 185.04 54.1148 185.04C54.7281 185.04 55.2881 185.147 55.7948 185.36C56.3148 185.573 56.7614 185.833 57.1348 186.14L56.3548 187.18C56.0214 186.927 55.6748 186.72 55.3148 186.56C54.9548 186.4 54.5614 186.32 54.1348 186.32C53.5214 186.32 53.0681 186.46 52.7748 186.74C52.4948 187.02 52.3548 187.347 52.3548 187.72C52.3548 187.947 52.4148 188.147 52.5348 188.32C52.6548 188.48 52.8148 188.627 53.0148 188.76C53.2148 188.88 53.4414 188.993 53.6948 189.1C53.9614 189.193 54.2348 189.293 54.5148 189.4C54.8614 189.533 55.2081 189.673 55.5548 189.82C55.9148 189.967 56.2348 190.153 56.5148 190.38C56.7948 190.593 57.0214 190.86 57.1948 191.18C57.3814 191.5 57.4748 191.887 57.4748 192.34C57.4748 192.74 57.3948 193.113 57.2348 193.46C57.0881 193.807 56.8614 194.113 56.5548 194.38C56.2614 194.647 55.8881 194.853 55.4348 195C54.9948 195.16 54.4881 195.24 53.9148 195.24ZM64.2937 195.24C63.6403 195.24 63.027 195.127 62.4537 194.9C61.8937 194.66 61.4003 194.327 60.9737 193.9C60.5603 193.46 60.2337 192.927 59.9937 192.3C59.7537 191.673 59.6337 190.96 59.6337 190.16C59.6337 189.36 59.7537 188.647 59.9937 188.02C60.247 187.38 60.5737 186.84 60.9737 186.4C61.387 185.96 61.8537 185.627 62.3737 185.4C62.8937 185.16 63.4337 185.04 63.9937 185.04C64.607 185.04 65.1537 185.147 65.6337 185.36C66.127 185.573 66.5337 185.88 66.8537 186.28C67.187 186.68 67.4403 187.16 67.6137 187.72C67.787 188.28 67.8737 188.907 67.8737 189.6C67.8737 189.773 67.867 189.947 67.8537 190.12C67.8537 190.28 67.8403 190.42 67.8137 190.54H61.2537C61.3203 191.58 61.6403 192.407 62.2137 193.02C62.8003 193.62 63.5603 193.92 64.4937 193.92C64.9603 193.92 65.387 193.853 65.7737 193.72C66.1737 193.573 66.5537 193.387 66.9137 193.16L67.4937 194.24C67.067 194.507 66.5937 194.74 66.0737 194.94C65.5537 195.14 64.9603 195.24 64.2937 195.24ZM61.2337 189.36H66.4337C66.4337 188.373 66.2203 187.627 65.7937 187.12C65.3803 186.6 64.7937 186.34 64.0337 186.34C63.687 186.34 63.3537 186.407 63.0337 186.54C62.727 186.673 62.447 186.873 62.1937 187.14C61.9403 187.393 61.727 187.707 61.5537 188.08C61.3937 188.453 61.287 188.88 61.2337 189.36ZM72.8421 195.24C72.0288 195.24 71.3488 195 70.8021 194.52C70.2688 194.04 70.0021 193.36 70.0021 192.48C70.0021 191.413 70.4754 190.6 71.4221 190.04C72.3688 189.467 73.8821 189.067 75.9621 188.84C75.9621 188.533 75.9288 188.233 75.8621 187.94C75.8088 187.647 75.7088 187.387 75.5621 187.16C75.4154 186.933 75.2088 186.753 74.9421 186.62C74.6888 186.473 74.3621 186.4 73.9621 186.4C73.4021 186.4 72.8754 186.507 72.3821 186.72C71.8888 186.933 71.4488 187.173 71.0621 187.44L70.4221 186.3C70.8754 186.007 71.4288 185.727 72.0821 185.46C72.7354 185.18 73.4554 185.04 74.2421 185.04C75.4288 185.04 76.2888 185.407 76.8221 186.14C77.3554 186.86 77.6221 187.827 77.6221 189.04V195H76.2621L76.1221 193.84H76.0621C75.5954 194.227 75.0954 194.56 74.5621 194.84C74.0288 195.107 73.4554 195.24 72.8421 195.24ZM73.3221 193.92C73.7888 193.92 74.2288 193.813 74.6421 193.6C75.0554 193.373 75.4954 193.047 75.9621 192.62V189.92C75.1488 190.027 74.4621 190.153 73.9021 190.3C73.3554 190.447 72.9088 190.62 72.5621 190.82C72.2288 191.02 71.9821 191.253 71.8221 191.52C71.6754 191.773 71.6021 192.053 71.6021 192.36C71.6021 192.92 71.7688 193.32 72.1021 193.56C72.4354 193.8 72.8421 193.92 73.3221 193.92ZM81.2802 195V185.28H82.6402L82.7802 187.04H82.8402C83.1736 186.427 83.5736 185.94 84.0402 185.58C84.5202 185.22 85.0402 185.04 85.6002 185.04C85.9869 185.04 86.3336 185.107 86.6402 185.24L86.3202 186.68C86.1602 186.627 86.0136 186.587 85.8802 186.56C85.7469 186.533 85.5802 186.52 85.3802 186.52C84.9669 186.52 84.5336 186.687 84.0802 187.02C83.6402 187.353 83.2536 187.933 82.9202 188.76V195H81.2802ZM92.4585 195.24C91.8185 195.24 91.2185 195.127 90.6585 194.9C90.0985 194.673 89.6118 194.347 89.1985 193.92C88.7985 193.48 88.4785 192.947 88.2385 192.32C88.0118 191.68 87.8985 190.96 87.8985 190.16C87.8985 189.347 88.0252 188.627 88.2785 188C88.5318 187.36 88.8718 186.82 89.2985 186.38C89.7252 185.94 90.2185 185.607 90.7785 185.38C91.3518 185.153 91.9518 185.04 92.5785 185.04C93.2185 185.04 93.7652 185.153 94.2185 185.38C94.6718 185.607 95.0718 185.873 95.4185 186.18L94.5785 187.26C94.2985 187.007 93.9985 186.8 93.6785 186.64C93.3718 186.48 93.0252 186.4 92.6385 186.4C92.1985 186.4 91.7918 186.493 91.4185 186.68C91.0452 186.853 90.7252 187.107 90.4585 187.44C90.1918 187.773 89.9785 188.173 89.8185 188.64C89.6718 189.093 89.5985 189.6 89.5985 190.16C89.5985 190.72 89.6718 191.227 89.8185 191.68C89.9652 192.133 90.1652 192.527 90.4185 192.86C90.6852 193.18 91.0052 193.433 91.3785 193.62C91.7518 193.793 92.1585 193.88 92.5985 193.88C93.0518 193.88 93.4652 193.787 93.8385 193.6C94.2252 193.4 94.5718 193.167 94.8785 192.9L95.5985 194C95.1585 194.387 94.6718 194.693 94.1385 194.92C93.6052 195.133 93.0452 195.24 92.4585 195.24ZM98.3396 195V180.76H99.9796V184.64L99.9196 186.64C100.386 186.2 100.873 185.827 101.38 185.52C101.886 185.2 102.48 185.04 103.16 185.04C104.186 185.04 104.933 185.36 105.4 186C105.88 186.64 106.12 187.587 106.12 188.84V195H104.48V189.06C104.48 188.14 104.333 187.48 104.04 187.08C103.746 186.667 103.28 186.46 102.64 186.46C102.133 186.46 101.686 186.587 101.3 186.84C100.913 187.093 100.473 187.467 99.9796 187.96V195H98.3396Z" fill="#232323"/>
<circle cx="372.5" cy="56.5" r="56.5" fill="#BE9EB2"/>
<path d="M420 69C420 37.0199 393.98 11 362 11C330.02 11 304 37.0199 304 69C304 85.8917 311.264 101.117 322.826 111.726L322.771 111.774L324.652 113.361C324.775 113.464 324.907 113.548 325.03 113.649C326.029 114.478 327.065 115.265 328.12 116.026C328.461 116.273 328.803 116.52 329.151 116.76C330.277 117.537 331.433 118.273 332.614 118.971C332.871 119.123 333.131 119.27 333.39 119.418C334.683 120.154 336.003 120.848 337.355 121.485C337.454 121.531 337.556 121.573 337.655 121.62C342.061 123.668 346.764 125.171 351.682 126.059C351.811 126.083 351.94 126.106 352.07 126.129C353.597 126.393 355.141 126.603 356.704 126.745C356.894 126.762 357.084 126.772 357.276 126.789C358.832 126.918 360.406 127 362 127C363.58 127 365.138 126.918 366.686 126.793C366.883 126.776 367.079 126.766 367.275 126.749C368.825 126.608 370.356 126.403 371.868 126.144C371.999 126.121 372.132 126.097 372.263 126.072C377.107 125.203 381.743 123.733 386.092 121.738C386.252 121.664 386.415 121.594 386.575 121.518C387.876 120.907 389.148 120.247 390.395 119.544C390.705 119.369 391.013 119.192 391.321 119.011C392.455 118.342 393.571 117.644 394.655 116.902C395.045 116.636 395.427 116.355 395.813 116.077C396.739 115.411 397.648 114.723 398.532 114.004C398.728 113.846 398.939 113.709 399.131 113.546L401.06 111.935L401.003 111.886C412.667 101.273 420 85.9782 420 69ZM308.218 69C308.218 39.3441 332.344 15.2182 362 15.2182C391.656 15.2182 415.782 39.3441 415.782 69C415.782 84.9806 408.769 99.3477 397.667 109.206C397.047 108.777 396.422 108.394 395.783 108.073L377.926 99.1452C376.323 98.3438 375.327 96.7324 375.327 94.9418V88.7052C375.741 88.1948 376.177 87.6169 376.629 86.9821C378.94 83.7172 380.794 80.0854 382.146 76.1772C384.818 74.9076 386.543 72.2459 386.543 69.2404V61.7637C386.543 59.9351 385.873 58.1614 384.673 56.7673V46.9241C384.782 45.8295 385.17 39.652 380.701 34.5564C376.814 30.1189 370.523 27.8727 362 27.8727C353.477 27.8727 347.186 30.1189 343.299 34.5543C338.83 39.6499 339.218 45.8274 339.327 46.922V56.7652C338.129 58.1593 337.457 59.933 337.457 61.7616V69.2383C337.457 71.5604 338.498 73.7265 340.283 75.1881C341.991 81.8802 345.507 86.9463 346.806 88.6631V94.7668C346.806 96.4878 345.868 98.0696 344.355 98.8964L327.679 107.993C327.147 108.282 326.62 108.619 326.093 108.997C315.128 99.1431 308.218 84.8646 308.218 69ZM393.55 112.515C392.812 113.05 392.061 113.569 391.299 114.065C390.949 114.293 390.601 114.521 390.245 114.742C389.249 115.358 388.237 115.944 387.204 116.493C386.976 116.613 386.746 116.727 386.516 116.845C384.141 118.062 381.684 119.108 379.16 119.958C379.071 119.987 378.982 120.019 378.892 120.048C377.569 120.487 376.23 120.877 374.876 121.213C374.872 121.213 374.868 121.215 374.863 121.215C373.497 121.552 372.113 121.833 370.721 122.063C370.683 122.069 370.645 122.077 370.607 122.084C369.297 122.297 367.977 122.451 366.653 122.567C366.419 122.588 366.184 122.603 365.948 122.619C364.638 122.719 363.322 122.782 362 122.782C360.663 122.782 359.33 122.716 358.003 122.617C357.773 122.6 357.543 122.586 357.316 122.565C355.979 122.446 354.648 122.288 353.33 122.073C353.27 122.063 353.211 122.052 353.152 122.042C350.364 121.575 347.62 120.89 344.948 119.994C344.866 119.966 344.781 119.937 344.699 119.909C343.373 119.458 342.061 118.958 340.772 118.405C340.764 118.401 340.753 118.397 340.745 118.393C339.526 117.868 338.33 117.286 337.149 116.672C336.995 116.592 336.839 116.516 336.687 116.433C335.609 115.858 334.554 115.235 333.515 114.586C333.207 114.392 332.901 114.196 332.597 113.997C331.64 113.371 330.695 112.719 329.775 112.03C329.68 111.958 329.59 111.882 329.495 111.81C329.562 111.772 329.63 111.734 329.697 111.696L346.374 102.6C349.242 101.035 351.024 98.0337 351.024 94.7668L351.022 87.1698L350.537 86.5835C350.491 86.5308 345.931 80.9839 344.208 73.4734L344.016 72.6382L343.297 72.1721C342.282 71.5161 341.675 70.4194 341.675 69.2362V61.7595C341.675 60.7788 342.09 59.8655 342.849 59.1801L343.545 58.5516V46.8039L343.526 46.5276C343.52 46.477 342.898 41.4047 346.471 37.332C349.521 33.8562 354.747 32.0909 362 32.0909C369.226 32.0909 374.435 33.8415 377.493 37.2919C381.062 41.3224 380.478 46.4897 380.474 46.5319L380.455 58.5558L381.151 59.1843C381.908 59.8676 382.325 60.783 382.325 61.7637V69.2404C382.325 70.7442 381.302 72.1088 379.834 72.5622L378.786 72.8849L378.449 73.9289C377.204 77.7949 375.433 81.3656 373.185 84.5419C372.632 85.3223 372.094 86.014 371.632 86.5434L371.109 87.1403V94.9418C371.109 98.3417 372.999 101.4 376.04 102.918L393.898 111.846C394.012 111.903 394.124 111.962 394.235 112.021C394.01 112.192 393.778 112.35 393.55 112.515Z" fill="#455136"/>
<path d="M278.995 195V181.88H286.555V183.28H280.655V187.4H285.635V188.82H280.655V193.58H286.755V195H278.995ZM289.982 195V185.28H291.342L291.482 186.68H291.542C291.968 186.213 292.428 185.827 292.922 185.52C293.428 185.2 293.975 185.04 294.562 185.04C295.308 185.04 295.888 185.207 296.302 185.54C296.728 185.86 297.042 186.313 297.242 186.9C297.748 186.34 298.255 185.893 298.762 185.56C299.282 185.213 299.842 185.04 300.442 185.04C301.442 185.04 302.182 185.36 302.662 186C303.155 186.64 303.402 187.587 303.402 188.84V195H301.762V189.06C301.762 188.14 301.615 187.48 301.322 187.08C301.028 186.667 300.575 186.46 299.962 186.46C299.228 186.46 298.415 186.96 297.522 187.96V195H295.882V189.06C295.882 188.14 295.735 187.48 295.442 187.08C295.148 186.667 294.688 186.46 294.062 186.46C293.328 186.46 292.515 186.96 291.622 187.96V195H289.982ZM307.164 199.1V185.28H308.524L308.664 186.4H308.724C309.164 186.027 309.644 185.707 310.164 185.44C310.697 185.173 311.25 185.04 311.824 185.04C312.45 185.04 313.004 185.16 313.484 185.4C313.964 185.627 314.364 185.96 314.684 186.4C315.004 186.827 315.244 187.347 315.404 187.96C315.577 188.56 315.664 189.24 315.664 190C315.664 190.827 315.55 191.567 315.324 192.22C315.097 192.86 314.79 193.407 314.404 193.86C314.017 194.313 313.57 194.66 313.064 194.9C312.557 195.127 312.024 195.24 311.464 195.24C311.01 195.24 310.557 195.14 310.104 194.94C309.664 194.74 309.217 194.467 308.764 194.12L308.804 195.82V199.1H307.164ZM311.184 193.86C311.584 193.86 311.95 193.773 312.284 193.6C312.63 193.413 312.924 193.16 313.164 192.84C313.417 192.507 313.61 192.1 313.744 191.62C313.89 191.14 313.964 190.6 313.964 190C313.964 189.467 313.917 188.98 313.824 188.54C313.73 188.1 313.577 187.727 313.364 187.42C313.164 187.1 312.897 186.853 312.564 186.68C312.244 186.507 311.857 186.42 311.404 186.42C310.99 186.42 310.57 186.533 310.144 186.76C309.73 186.987 309.284 187.313 308.804 187.74V192.84C309.244 193.213 309.67 193.48 310.084 193.64C310.497 193.787 310.864 193.86 311.184 193.86ZM320.824 195.24C320.011 195.24 319.331 195 318.784 194.52C318.251 194.04 317.984 193.36 317.984 192.48C317.984 191.413 318.457 190.6 319.404 190.04C320.351 189.467 321.864 189.067 323.944 188.84C323.944 188.533 323.911 188.233 323.844 187.94C323.791 187.647 323.691 187.387 323.544 187.16C323.397 186.933 323.191 186.753 322.924 186.62C322.671 186.473 322.344 186.4 321.944 186.4C321.384 186.4 320.857 186.507 320.364 186.72C319.871 186.933 319.431 187.173 319.044 187.44L318.404 186.3C318.857 186.007 319.411 185.727 320.064 185.46C320.717 185.18 321.437 185.04 322.224 185.04C323.411 185.04 324.271 185.407 324.804 186.14C325.337 186.86 325.604 187.827 325.604 189.04V195H324.244L324.104 193.84H324.044C323.577 194.227 323.077 194.56 322.544 194.84C322.011 195.107 321.437 195.24 320.824 195.24ZM321.304 193.92C321.771 193.92 322.211 193.813 322.624 193.6C323.037 193.373 323.477 193.047 323.944 192.62V189.92C323.131 190.027 322.444 190.153 321.884 190.3C321.337 190.447 320.891 190.62 320.544 190.82C320.211 191.02 319.964 191.253 319.804 191.52C319.657 191.773 319.584 192.053 319.584 192.36C319.584 192.92 319.751 193.32 320.084 193.56C320.417 193.8 320.824 193.92 321.304 193.92ZM332.049 195.24C331.529 195.24 331.089 195.16 330.729 195C330.382 194.84 330.095 194.62 329.869 194.34C329.655 194.06 329.502 193.72 329.409 193.32C329.315 192.92 329.269 192.48 329.269 192V186.62H327.829V185.38L329.349 185.28L329.549 182.56H330.929V185.28H333.549V186.62H330.929V192.02C330.929 192.62 331.035 193.087 331.249 193.42C331.475 193.74 331.869 193.9 332.429 193.9C332.602 193.9 332.789 193.873 332.989 193.82C333.189 193.767 333.369 193.707 333.529 193.64L333.849 194.88C333.582 194.973 333.289 195.053 332.969 195.12C332.662 195.2 332.355 195.24 332.049 195.24ZM336.347 195V180.76H337.987V184.64L337.927 186.64C338.393 186.2 338.88 185.827 339.387 185.52C339.893 185.2 340.487 185.04 341.167 185.04C342.193 185.04 342.94 185.36 343.407 186C343.887 186.64 344.127 187.587 344.127 188.84V195H342.487V189.06C342.487 188.14 342.34 187.48 342.047 187.08C341.753 186.667 341.287 186.46 340.647 186.46C340.14 186.46 339.693 186.587 339.307 186.84C338.92 187.093 338.48 187.467 337.987 187.96V195H336.347ZM347.826 195V185.28H349.466V195H347.826ZM348.666 183.28C348.346 183.28 348.072 183.18 347.846 182.98C347.632 182.78 347.526 182.527 347.526 182.22C347.526 181.9 347.632 181.647 347.846 181.46C348.072 181.26 348.346 181.16 348.666 181.16C348.986 181.16 349.252 181.26 349.466 181.46C349.692 181.647 349.806 181.9 349.806 182.22C349.806 182.527 349.692 182.78 349.466 182.98C349.252 183.18 348.986 183.28 348.666 183.28ZM355.887 195.24C355.194 195.24 354.534 195.113 353.907 194.86C353.281 194.607 352.734 194.287 352.267 193.9L353.087 192.8C353.514 193.147 353.947 193.427 354.387 193.64C354.841 193.853 355.361 193.96 355.947 193.96C356.587 193.96 357.067 193.813 357.387 193.52C357.707 193.227 357.867 192.867 357.867 192.44C357.867 192.187 357.801 191.967 357.667 191.78C357.534 191.593 357.361 191.433 357.147 191.3C356.947 191.153 356.714 191.027 356.447 190.92C356.181 190.813 355.914 190.707 355.647 190.6C355.301 190.48 354.954 190.347 354.607 190.2C354.261 190.04 353.947 189.853 353.667 189.64C353.401 189.413 353.181 189.153 353.007 188.86C352.834 188.567 352.747 188.213 352.747 187.8C352.747 187.413 352.821 187.053 352.967 186.72C353.127 186.373 353.347 186.08 353.627 185.84C353.921 185.587 354.274 185.393 354.687 185.26C355.101 185.113 355.567 185.04 356.087 185.04C356.701 185.04 357.261 185.147 357.767 185.36C358.287 185.573 358.734 185.833 359.107 186.14L358.327 187.18C357.994 186.927 357.647 186.72 357.287 186.56C356.927 186.4 356.534 186.32 356.107 186.32C355.494 186.32 355.041 186.46 354.747 186.74C354.467 187.02 354.327 187.347 354.327 187.72C354.327 187.947 354.387 188.147 354.507 188.32C354.627 188.48 354.787 188.627 354.987 188.76C355.187 188.88 355.414 188.993 355.667 189.1C355.934 189.193 356.207 189.293 356.487 189.4C356.834 189.533 357.181 189.673 357.527 189.82C357.887 189.967 358.207 190.153 358.487 190.38C358.767 190.593 358.994 190.86 359.167 191.18C359.354 191.5 359.447 191.887 359.447 192.34C359.447 192.74 359.367 193.113 359.207 193.46C359.061 193.807 358.834 194.113 358.527 194.38C358.234 194.647 357.861 194.853 357.407 195C356.967 195.16 356.461 195.24 355.887 195.24ZM366.266 195.24C365.613 195.24 365 195.127 364.426 194.9C363.866 194.66 363.373 194.327 362.946 193.9C362.533 193.46 362.206 192.927 361.966 192.3C361.726 191.673 361.606 190.96 361.606 190.16C361.606 189.36 361.726 188.647 361.966 188.02C362.22 187.38 362.546 186.84 362.946 186.4C363.36 185.96 363.826 185.627 364.346 185.4C364.866 185.16 365.406 185.04 365.966 185.04C366.58 185.04 367.126 185.147 367.606 185.36C368.1 185.573 368.506 185.88 368.826 186.28C369.16 186.68 369.413 187.16 369.586 187.72C369.76 188.28 369.846 188.907 369.846 189.6C369.846 189.773 369.84 189.947 369.826 190.12C369.826 190.28 369.813 190.42 369.786 190.54H363.226C363.293 191.58 363.613 192.407 364.186 193.02C364.773 193.62 365.533 193.92 366.466 193.92C366.933 193.92 367.36 193.853 367.746 193.72C368.146 193.573 368.526 193.387 368.886 193.16L369.466 194.24C369.04 194.507 368.566 194.74 368.046 194.94C367.526 195.14 366.933 195.24 366.266 195.24ZM363.206 189.36H368.406C368.406 188.373 368.193 187.627 367.766 187.12C367.353 186.6 366.766 186.34 366.006 186.34C365.66 186.34 365.326 186.407 365.006 186.54C364.7 186.673 364.42 186.873 364.166 187.14C363.913 187.393 363.7 187.707 363.526 188.08C363.366 188.453 363.26 188.88 363.206 189.36ZM380.132 192.92V189.02H376.492V187.78H380.132V183.88H381.432V187.78H385.072V189.02H381.432V192.92H380.132ZM392.757 195V181.88H396.037C398.064 181.88 399.604 182.44 400.657 183.56C401.711 184.68 402.237 186.287 402.237 188.38C402.237 189.42 402.104 190.353 401.837 191.18C401.571 191.993 401.177 192.687 400.657 193.26C400.137 193.82 399.497 194.253 398.737 194.56C397.977 194.853 397.104 195 396.117 195H392.757ZM394.417 193.64H395.917C397.451 193.64 398.597 193.18 399.357 192.26C400.131 191.34 400.517 190.047 400.517 188.38C400.517 186.713 400.131 185.44 399.357 184.56C398.597 183.68 397.451 183.24 395.917 183.24H394.417V193.64ZM409.442 195.24C408.789 195.24 408.175 195.127 407.602 194.9C407.042 194.66 406.549 194.327 406.122 193.9C405.709 193.46 405.382 192.927 405.142 192.3C404.902 191.673 404.782 190.96 404.782 190.16C404.782 189.36 404.902 188.647 405.142 188.02C405.395 187.38 405.722 186.84 406.122 186.4C406.535 185.96 407.002 185.627 407.522 185.4C408.042 185.16 408.582 185.04 409.142 185.04C409.755 185.04 410.302 185.147 410.782 185.36C411.275 185.573 411.682 185.88 412.002 186.28C412.335 186.68 412.589 187.16 412.762 187.72C412.935 188.28 413.022 188.907 413.022 189.6C413.022 189.773 413.015 189.947 413.002 190.12C413.002 190.28 412.989 190.42 412.962 190.54H406.402C406.469 191.58 406.789 192.407 407.362 193.02C407.949 193.62 408.709 193.92 409.642 193.92C410.109 193.92 410.535 193.853 410.922 193.72C411.322 193.573 411.702 193.387 412.062 193.16L412.642 194.24C412.215 194.507 411.742 194.74 411.222 194.94C410.702 195.14 410.109 195.24 409.442 195.24ZM406.382 189.36H411.582C411.582 188.373 411.369 187.627 410.942 187.12C410.529 186.6 409.942 186.34 409.182 186.34C408.835 186.34 408.502 186.407 408.182 186.54C407.875 186.673 407.595 186.873 407.342 187.14C407.089 187.393 406.875 187.707 406.702 188.08C406.542 188.453 406.435 188.88 406.382 189.36ZM416.304 195V186.62H414.984V185.38L416.304 185.28V183.74C416.304 182.74 416.531 181.953 416.984 181.38C417.451 180.807 418.171 180.52 419.144 180.52C419.451 180.52 419.737 180.553 420.004 180.62C420.284 180.673 420.537 180.747 420.764 180.84L420.404 182.1C420.044 181.94 419.677 181.86 419.304 181.86C418.397 181.86 417.944 182.487 417.944 183.74V185.28H420.004V186.62H417.944V195H416.304ZM422.464 195V185.28H424.104V195H422.464ZM423.304 183.28C422.984 183.28 422.71 183.18 422.484 182.98C422.27 182.78 422.164 182.527 422.164 182.22C422.164 181.9 422.27 181.647 422.484 181.46C422.71 181.26 422.984 181.16 423.304 181.16C423.624 181.16 423.89 181.26 424.104 181.46C424.33 181.647 424.444 181.9 424.444 182.22C424.444 182.527 424.33 182.78 424.104 182.98C423.89 183.18 423.624 183.28 423.304 183.28ZM427.986 195V185.28H429.346L429.486 186.68H429.546C430.012 186.213 430.499 185.827 431.006 185.52C431.526 185.2 432.126 185.04 432.806 185.04C433.832 185.04 434.579 185.36 435.046 186C435.526 186.64 435.766 187.587 435.766 188.84V195H434.126V189.06C434.126 188.14 433.979 187.48 433.686 187.08C433.392 186.667 432.926 186.46 432.286 186.46C431.779 186.46 431.332 186.587 430.946 186.84C430.559 187.093 430.119 187.467 429.626 187.96V195H427.986ZM443.463 195.24C442.81 195.24 442.197 195.127 441.623 194.9C441.063 194.66 440.57 194.327 440.143 193.9C439.73 193.46 439.403 192.927 439.163 192.3C438.923 191.673 438.803 190.96 438.803 190.16C438.803 189.36 438.923 188.647 439.163 188.02C439.417 187.38 439.743 186.84 440.143 186.4C440.557 185.96 441.023 185.627 441.543 185.4C442.063 185.16 442.603 185.04 443.163 185.04C443.777 185.04 444.323 185.147 444.803 185.36C445.297 185.573 445.703 185.88 446.023 186.28C446.357 186.68 446.61 187.16 446.783 187.72C446.957 188.28 447.043 188.907 447.043 189.6C447.043 189.773 447.037 189.947 447.023 190.12C447.023 190.28 447.01 190.42 446.983 190.54H440.423C440.49 191.58 440.81 192.407 441.383 193.02C441.97 193.62 442.73 193.92 443.663 193.92C444.13 193.92 444.557 193.853 444.943 193.72C445.343 193.573 445.723 193.387 446.083 193.16L446.663 194.24C446.237 194.507 445.763 194.74 445.243 194.94C444.723 195.14 444.13 195.24 443.463 195.24ZM440.403 189.36H445.603C445.603 188.373 445.39 187.627 444.963 187.12C444.55 186.6 443.963 186.34 443.203 186.34C442.857 186.34 442.523 186.407 442.203 186.54C441.897 186.673 441.617 186.873 441.363 187.14C441.11 187.393 440.897 187.707 440.723 188.08C440.563 188.453 440.457 188.88 440.403 189.36Z" fill="#232323"/>
<path d="M735.5 49H652C651.667 49 650.9 49.7 650.5 52.5C650.1 55.3 651.333 60.3333 652 62.5L639 84L653.5 88V112.5H672.5V128.5H714.5V103C715 102.667 718.5 99.8 728.5 91C738.5 82.2 737.333 59.3333 735.5 49Z" fill="#BE9EB2"/>
<path d="M729.775 19.0366L718.524 27.4583L707.209 53.839H698.11L694.538 46.0969H696.872C701.142 46.0969 704.614 42.6616 704.614 38.3918V30.6127H708.485V19H696.872V30.6127H700.743V38.3918C700.743 40.5249 699.007 42.2259 696.872 42.2259H692.751L687.804 31.5228L693.73 28.5691L674.325 20.258L669.763 36.2238C669.639 26.7246 661.884 19.035 652.355 19.035C642.75 19.035 634.936 26.8486 634.936 36.4543C634.936 42.2588 637.876 47.7032 642.678 50.9219V53.8386H637.99L637.688 55.4258C636.748 60.3053 636.66 65.3201 637.429 70.3214L624.225 93.857L638.807 97.1879V121.581H658.162V139H704.614V112.029C718.162 102.445 725.9 87.0343 725.888 70.5942L725.892 63.5337C725.892 60.8723 725.647 58.1376 725.151 55.4433L724.865 53.8386H721.065L729.775 32.9722V19.0366ZM700.742 26.7787V22.9076H704.614V26.7787H700.742ZM693.847 53.8386H686.505L682.987 46.0965H690.274L693.847 53.8386ZM676.837 25.5516L684.531 28.8479L682.716 29.738L688.487 42.2259H681.227L676.51 31.8731L674.778 32.7478L676.837 25.5516ZM682.253 53.839H673.646V50.0049C673.646 47.8703 675.382 46.0973 677.517 46.0973H678.734L682.253 53.839ZM674.652 37.1489L677 42.3149C672.974 42.586 669.775 45.9112 669.775 50.0045V53.8386H662.033V50.9219C665.906 48.3263 668.534 44.2756 669.42 39.764L674.652 37.1489ZM638.807 36.4563C638.807 28.9873 644.887 22.908 652.356 22.908C659.825 22.908 665.904 28.9873 665.904 36.4563C665.904 41.2642 663.307 45.7563 659.128 48.1775L658.162 48.7348V53.8386H654.291V41.9044C656.538 41.1033 658.162 38.9739 658.162 36.4539C658.162 33.2526 655.557 30.6473 652.356 30.6473C649.154 30.6473 646.549 33.253 646.549 36.4543C646.549 38.9743 648.173 41.1033 650.42 41.9048V53.839H646.549V48.7348L645.583 48.1755C641.405 45.7543 638.807 41.2638 638.807 36.4563ZM652.356 38.3918C651.287 38.3918 650.42 37.5224 650.42 36.4563C650.42 35.3877 651.287 34.5208 652.356 34.5208C653.424 34.5208 654.291 35.3877 654.291 36.4563C654.291 37.5249 653.424 38.3918 652.356 38.3918ZM721.607 57.7101C721.888 59.6452 722.029 61.6079 722.029 63.5162L722.033 70.5905C722.045 86.0958 714.394 100.616 701.594 109.428L700.743 110.009V135.129H662.033V117.71H642.678V94.1009L630.134 91.2383L641.464 71.0376L641.354 70.3466C640.634 66.1118 640.594 61.5807 641.219 57.7101H642.678H662.033H721.607ZM716.871 53.8386H711.419L721.067 31.3443L725.358 33.4811L716.871 53.8386ZM725.904 29.4515L723.763 28.3813L725.904 26.7787V29.4515Z" fill="#455136"/>
<path d="M656.227 69.3228C653.025 69.3228 650.42 67.3873 650.42 63.5162H646.549C646.549 69.3228 650.89 73.1938 656.227 73.1938C661.563 73.1938 665.904 69.3228 665.904 63.5162H662.033C662.033 67.3873 659.428 69.3228 656.227 69.3228Z" fill="#455136"/>
<path d="M648.529 195V181.88H651.809C653.835 181.88 655.375 182.44 656.429 183.56C657.482 184.68 658.009 186.287 658.009 188.38C658.009 189.42 657.875 190.353 657.609 191.18C657.342 191.993 656.949 192.687 656.429 193.26C655.909 193.82 655.269 194.253 654.509 194.56C653.749 194.853 652.875 195 651.889 195H648.529ZM650.189 193.64H651.689C653.222 193.64 654.369 193.18 655.129 192.26C655.902 191.34 656.289 190.047 656.289 188.38C656.289 186.713 655.902 185.44 655.129 184.56C654.369 183.68 653.222 183.24 651.689 183.24H650.189V193.64ZM665.213 195.24C664.56 195.24 663.947 195.127 663.373 194.9C662.813 194.66 662.32 194.327 661.893 193.9C661.48 193.46 661.153 192.927 660.913 192.3C660.673 191.673 660.553 190.96 660.553 190.16C660.553 189.36 660.673 188.647 660.913 188.02C661.167 187.38 661.493 186.84 661.893 186.4C662.307 185.96 662.773 185.627 663.293 185.4C663.813 185.16 664.353 185.04 664.913 185.04C665.527 185.04 666.073 185.147 666.553 185.36C667.047 185.573 667.453 185.88 667.773 186.28C668.107 186.68 668.36 187.16 668.533 187.72C668.707 188.28 668.793 188.907 668.793 189.6C668.793 189.773 668.787 189.947 668.773 190.12C668.773 190.28 668.76 190.42 668.733 190.54H662.173C662.24 191.58 662.56 192.407 663.133 193.02C663.72 193.62 664.48 193.92 665.413 193.92C665.88 193.92 666.307 193.853 666.693 193.72C667.093 193.573 667.473 193.387 667.833 193.16L668.413 194.24C667.987 194.507 667.513 194.74 666.993 194.94C666.473 195.14 665.88 195.24 665.213 195.24ZM662.153 189.36H667.353C667.353 188.373 667.14 187.627 666.713 187.12C666.3 186.6 665.713 186.34 664.953 186.34C664.607 186.34 664.273 186.407 663.953 186.54C663.647 186.673 663.367 186.873 663.113 187.14C662.86 187.393 662.647 187.707 662.473 188.08C662.313 188.453 662.207 188.88 662.153 189.36ZM674.335 195.24C673.642 195.24 672.982 195.113 672.355 194.86C671.728 194.607 671.182 194.287 670.715 193.9L671.535 192.8C671.962 193.147 672.395 193.427 672.835 193.64C673.288 193.853 673.808 193.96 674.395 193.96C675.035 193.96 675.515 193.813 675.835 193.52C676.155 193.227 676.315 192.867 676.315 192.44C676.315 192.187 676.248 191.967 676.115 191.78C675.982 191.593 675.808 191.433 675.595 191.3C675.395 191.153 675.162 191.027 674.895 190.92C674.628 190.813 674.362 190.707 674.095 190.6C673.748 190.48 673.402 190.347 673.055 190.2C672.708 190.04 672.395 189.853 672.115 189.64C671.848 189.413 671.628 189.153 671.455 188.86C671.282 188.567 671.195 188.213 671.195 187.8C671.195 187.413 671.268 187.053 671.415 186.72C671.575 186.373 671.795 186.08 672.075 185.84C672.368 185.587 672.722 185.393 673.135 185.26C673.548 185.113 674.015 185.04 674.535 185.04C675.148 185.04 675.708 185.147 676.215 185.36C676.735 185.573 677.182 185.833 677.555 186.14L676.775 187.18C676.442 186.927 676.095 186.72 675.735 186.56C675.375 186.4 674.982 186.32 674.555 186.32C673.942 186.32 673.488 186.46 673.195 186.74C672.915 187.02 672.775 187.347 672.775 187.72C672.775 187.947 672.835 188.147 672.955 188.32C673.075 188.48 673.235 188.627 673.435 188.76C673.635 188.88 673.862 188.993 674.115 189.1C674.382 189.193 674.655 189.293 674.935 189.4C675.282 189.533 675.628 189.673 675.975 189.82C676.335 189.967 676.655 190.153 676.935 190.38C677.215 190.593 677.442 190.86 677.615 191.18C677.802 191.5 677.895 191.887 677.895 192.34C677.895 192.74 677.815 193.113 677.655 193.46C677.508 193.807 677.282 194.113 676.975 194.38C676.682 194.647 676.308 194.853 675.855 195C675.415 195.16 674.908 195.24 674.335 195.24ZM680.774 195V185.28H682.414V195H680.774ZM681.614 183.28C681.294 183.28 681.021 183.18 680.794 182.98C680.581 182.78 680.474 182.527 680.474 182.22C680.474 181.9 680.581 181.647 680.794 181.46C681.021 181.26 681.294 181.16 681.614 181.16C681.934 181.16 682.201 181.26 682.414 181.46C682.641 181.647 682.754 181.9 682.754 182.22C682.754 182.527 682.641 182.78 682.414 182.98C682.201 183.18 681.934 183.28 681.614 183.28ZM689.576 199.48C688.976 199.48 688.429 199.42 687.936 199.3C687.443 199.193 687.016 199.027 686.656 198.8C686.309 198.573 686.036 198.3 685.836 197.98C685.649 197.66 685.556 197.287 685.556 196.86C685.556 196.447 685.683 196.053 685.936 195.68C686.189 195.307 686.536 194.967 686.976 194.66V194.58C686.736 194.433 686.529 194.233 686.356 193.98C686.196 193.713 686.116 193.387 686.116 193C686.116 192.587 686.229 192.227 686.456 191.92C686.683 191.613 686.923 191.373 687.176 191.2V191.12C686.856 190.853 686.563 190.5 686.296 190.06C686.043 189.607 685.916 189.087 685.916 188.5C685.916 187.967 686.009 187.487 686.196 187.06C686.396 186.633 686.663 186.273 686.996 185.98C687.329 185.673 687.716 185.44 688.156 185.28C688.609 185.12 689.083 185.04 689.576 185.04C689.843 185.04 690.089 185.067 690.316 185.12C690.556 185.16 690.769 185.213 690.956 185.28H694.336V186.54H692.336C692.563 186.767 692.749 187.053 692.896 187.4C693.056 187.747 693.136 188.127 693.136 188.54C693.136 189.06 693.043 189.533 692.856 189.96C692.669 190.373 692.416 190.727 692.096 191.02C691.776 191.3 691.396 191.52 690.956 191.68C690.529 191.84 690.069 191.92 689.576 191.92C689.336 191.92 689.089 191.893 688.836 191.84C688.583 191.773 688.343 191.687 688.116 191.58C687.943 191.727 687.796 191.893 687.676 192.08C687.556 192.253 687.496 192.473 687.496 192.74C687.496 193.047 687.616 193.3 687.856 193.5C688.096 193.7 688.549 193.8 689.216 193.8H691.096C692.229 193.8 693.076 193.987 693.636 194.36C694.209 194.72 694.496 195.307 694.496 196.12C694.496 196.573 694.383 197 694.156 197.4C693.929 197.813 693.603 198.173 693.176 198.48C692.749 198.787 692.229 199.027 691.616 199.2C691.016 199.387 690.336 199.48 689.576 199.48ZM689.576 190.82C689.856 190.82 690.116 190.767 690.356 190.66C690.609 190.553 690.829 190.4 691.016 190.2C691.216 190 691.369 189.76 691.476 189.48C691.583 189.187 691.636 188.86 691.636 188.5C691.636 187.78 691.436 187.227 691.036 186.84C690.636 186.44 690.149 186.24 689.576 186.24C689.003 186.24 688.516 186.44 688.116 186.84C687.716 187.227 687.516 187.78 687.516 188.5C687.516 188.86 687.569 189.187 687.676 189.48C687.783 189.76 687.929 190 688.116 190.2C688.316 190.4 688.536 190.553 688.776 190.66C689.029 190.767 689.296 190.82 689.576 190.82ZM689.816 198.34C690.283 198.34 690.703 198.28 691.076 198.16C691.463 198.053 691.789 197.907 692.056 197.72C692.323 197.547 692.529 197.34 692.676 197.1C692.823 196.86 692.896 196.613 692.896 196.36C692.896 195.907 692.729 195.593 692.396 195.42C692.063 195.247 691.576 195.16 690.936 195.16H689.256C689.069 195.16 688.863 195.147 688.636 195.12C688.423 195.107 688.209 195.067 687.996 195C687.649 195.253 687.396 195.52 687.236 195.8C687.076 196.08 686.996 196.36 686.996 196.64C686.996 197.16 687.243 197.573 687.736 197.88C688.243 198.187 688.936 198.34 689.816 198.34ZM696.974 195V185.28H698.334L698.474 186.68H698.534C699.001 186.213 699.487 185.827 699.994 185.52C700.514 185.2 701.114 185.04 701.794 185.04C702.821 185.04 703.567 185.36 704.034 186C704.514 186.64 704.754 187.587 704.754 188.84V195H703.114V189.06C703.114 188.14 702.967 187.48 702.674 187.08C702.381 186.667 701.914 186.46 701.274 186.46C700.767 186.46 700.321 186.587 699.934 186.84C699.547 187.093 699.107 187.467 698.614 187.96V195H696.974Z" fill="#232323"/>
<path d="M276.354 72.3536C276.549 72.1583 276.549 71.8417 276.354 71.6464L273.172 68.4645C272.976 68.2692 272.66 68.2692 272.464 68.4645C272.269 68.6597 272.269 68.9763 272.464 69.1716L275.293 72L272.464 74.8284C272.269 75.0237 272.269 75.3403 272.464 75.5355C272.66 75.7308 272.976 75.7308 273.172 75.5355L276.354 72.3536ZM150 72.5H276V71.5H150V72.5Z" fill="black"/>
<path d="M585.354 72.3536C585.549 72.1583 585.549 71.8417 585.354 71.6464L582.172 68.4645C581.976 68.2692 581.66 68.2692 581.464 68.4645C581.269 68.6597 581.269 68.9763 581.464 69.1716L584.293 72L581.464 74.8284C581.269 75.0237 581.269 75.3403 581.464 75.5355C581.66 75.7308 581.976 75.7308 582.172 75.5355L585.354 72.3536ZM459 72.5H585V71.5H459V72.5Z" fill="black"/>
<defs>
<clipPath id="clip0">
<rect width="116" height="116" fill="white" transform="translate(13 11)"/>
</clipPath>
</defs>
</svg>
