<svg width="1065" height="210" viewBox="0 0 1065 210" fill="none" xmlns="http://www.w3.org/2000/svg">
<circle cx="50.5" cy="47.5" r="45.5" fill="#BCC2A9" fill-opacity="0.49"/>
<g clip-path="url(#clip0)">
<path d="M49.7494 70.9396C49.7494 72.0071 50.6149 72.8726 51.6824 72.8726H67.1463C68.2138 72.8726 69.0793 72.0071 69.0793 70.9396V55.4757C69.0623 51.1114 66.1213 47.3002 61.9042 46.176C66.362 41.622 66.31 34.3233 61.7872 29.8334C57.2652 25.3436 49.9665 25.3436 45.4445 29.8334C40.9216 34.3233 40.8697 41.622 45.3275 46.176C41.1095 47.3002 38.1694 51.1114 38.1515 55.4757V62.1213C38.1515 63.1888 39.017 64.0543 40.0844 64.0543C41.1519 64.0543 42.0174 63.1888 42.0174 62.1213V55.4757C42.0174 52.2733 44.6139 49.6768 47.8164 49.6768H59.4143C62.6177 49.6768 65.2133 52.2733 65.2133 55.4757V69.0066H51.6824C50.6149 69.0066 49.7494 69.8721 49.7494 70.9396ZM53.6154 30.3469C57.8863 30.3469 61.3473 33.8089 61.3473 38.0788C61.3473 42.3488 57.8863 45.8108 53.6154 45.8108C49.3454 45.8108 45.8834 42.3488 45.8834 38.0788C45.8834 33.8089 49.3454 30.3469 53.6154 30.3469Z" fill="#455136"/>
<path d="M59.4143 59.3417C60.4818 59.3417 61.3473 58.4762 61.3473 57.4087C61.3473 56.3412 60.4818 55.4757 59.4143 55.4757H55.5483C54.4809 55.4757 53.6154 56.3412 53.6154 57.4087C53.6154 58.4762 54.4809 59.3417 55.5483 59.3417H59.4143Z" fill="#455136"/>
<path d="M127.303 108.896L104.067 85.6598C102.305 83.9864 99.7041 83.5513 97.4946 84.5612L87.2501 74.3167C99.521 56.1525 95.1548 31.5267 77.386 18.6895C59.6173 5.85134 34.866 9.43983 21.4747 26.7952C8.08443 44.1506 10.8914 69.0029 27.8164 82.934C28.6404 83.6126 29.8589 83.4956 30.5375 82.6707C31.2171 81.8467 31.0991 80.6282 30.2751 79.9496C14.7055 67.1973 12.2798 44.2978 24.8339 28.5677C37.387 12.8377 60.2534 10.1222 76.1421 22.4752C92.0298 34.8282 95.035 57.6589 82.8849 73.7023C82.4214 74.3167 81.9495 74.9217 81.4483 75.5031C81.4059 75.556 81.3577 75.6022 81.3134 75.6542C80.1893 76.9482 78.9755 78.1619 77.6815 79.2861C77.6211 79.3389 77.5654 79.3965 77.504 79.4484C76.9236 79.942 76.3318 80.4149 75.7268 80.8661C69.3728 85.7089 61.605 88.3337 53.6154 88.3366C53.0028 88.3366 52.394 88.3054 51.789 88.2733C50.7216 88.2139 49.8089 89.0322 49.7494 90.0997C49.6909 91.1671 50.5092 92.0798 51.5767 92.1393C52.2553 92.1752 52.9292 92.2082 53.6154 92.2082C61.7088 92.2167 69.6182 89.7929 76.3167 85.2493L87.6654 96.598C88.4205 97.3531 89.6437 97.3531 90.3988 96.598L98.5998 88.397C99.3662 87.6683 100.569 87.6683 101.335 88.397L124.57 111.635C125.323 112.389 125.323 113.612 124.57 114.366L116.371 122.568C116.008 122.931 115.515 123.135 115.003 123.135C114.489 123.135 113.998 122.931 113.635 122.568L98.4073 107.34C97.6485 106.607 96.4432 106.618 95.6975 107.363C94.9519 108.109 94.9415 109.314 95.6739 110.073L110.902 125.301C113.166 127.566 116.839 127.566 119.104 125.301L127.303 117.101C129.568 114.837 129.568 111.164 127.303 108.9V108.896ZM84.9085 77.4361L94.4988 87.0265L89.0321 92.4942L79.4408 82.9029C81.4314 81.2577 83.2624 79.4267 84.9085 77.4361Z" fill="#455136"/>
<path d="M53.6154 80.6046C52.5479 80.6046 51.6824 81.4701 51.6824 82.5376C51.6824 83.6051 52.5479 84.4706 53.6154 84.4706C63.789 84.5036 73.4002 79.808 79.6258 71.7617C85.8523 63.7164 87.9863 53.2341 85.4021 43.3945C85.135 42.361 84.0807 41.739 83.0462 42.0062C82.0127 42.2723 81.3907 43.3275 81.6578 44.361C83.9448 53.0425 82.0656 62.295 76.5715 69.3955C71.0774 76.497 62.5941 80.6386 53.6154 80.6046V80.6046Z" fill="#455136"/>
<path d="M69.5144 22.8565C54.899 14.7546 36.529 18.9207 26.8385 32.5356C17.1481 46.1496 19.2274 64.8707 31.6682 76.0269C32.1807 76.5017 32.9084 76.6631 33.5729 76.4498C34.2364 76.2365 34.7347 75.6824 34.8754 74.9991C35.016 74.3148 34.7772 73.6088 34.2505 73.151C23.2831 63.3049 21.4549 46.7952 30.0014 34.7876C38.5479 22.7791 54.747 19.101 67.6418 26.2393C68.5753 26.7565 69.7522 26.4186 70.2694 25.4842C70.7867 24.5507 70.4488 23.3738 69.5144 22.8565V22.8565Z" fill="#455136"/>
<path d="M30.4195 113.465C29.352 113.465 28.4865 114.331 28.4865 115.398C28.4865 116.466 29.352 117.331 30.4195 117.331H42.0174C43.0849 117.331 43.9504 116.466 43.9504 115.398C43.9504 114.331 43.0849 113.465 42.0174 113.465H30.4195Z" fill="#455136"/>
<path d="M67.1463 96.0685H45.8834V70.9396C45.8872 70.0619 45.2982 69.2926 44.4507 69.0661C43.6031 68.8386 42.7083 69.2115 42.2732 69.9731L27.3652 96.0685H24.6205C21.4181 96.0685 18.8216 98.665 18.8216 101.867V121.197C18.8216 124.4 21.4181 126.996 24.6205 126.996H67.1463C70.3497 126.996 72.9453 124.4 72.9453 121.197V117.331C72.9453 116.264 72.0797 115.398 71.0123 115.398C69.9448 115.398 69.0793 116.264 69.0793 117.331V121.197C69.0793 122.265 68.2138 123.13 67.1463 123.13H24.6205C23.553 123.13 22.6875 122.265 22.6875 121.197V101.867C22.6875 100.8 23.553 99.9345 24.6205 99.9345H28.4865C29.1783 99.9364 29.8183 99.5673 30.1647 98.968L42.0174 78.2195V98.0015C42.0174 99.069 42.8829 99.9345 43.9504 99.9345H67.1463C68.2138 99.9345 69.0793 100.8 69.0793 101.867V105.733C69.0793 106.801 69.9448 107.666 71.0123 107.666C72.0797 107.666 72.9453 106.801 72.9453 105.733V101.867C72.9453 98.665 70.3497 96.0685 67.1463 96.0685V96.0685Z" fill="#455136"/>
<path d="M49.7494 107.666C49.7494 106.599 48.8839 105.733 47.8164 105.733H34.2855C33.218 105.733 32.3525 106.599 32.3525 107.666C32.3525 108.734 33.218 109.599 34.2855 109.599H47.8164C48.8839 109.599 49.7494 108.734 49.7494 107.666Z" fill="#455136"/>
<path d="M65.2133 107.666C65.2133 106.599 64.3478 105.733 63.2803 105.733H55.5483C54.4809 105.733 53.6154 106.599 53.6154 107.666C53.6154 108.734 54.4809 109.599 55.5483 109.599H63.2803C64.3478 109.599 65.2133 108.734 65.2133 107.666Z" fill="#455136"/>
<path d="M49.7494 117.331H57.4813C58.5488 117.331 59.4143 116.466 59.4143 115.398C59.4143 114.331 58.5488 113.465 57.4813 113.465H49.7494C48.6819 113.465 47.8164 114.331 47.8164 115.398C47.8164 116.466 48.6819 117.331 49.7494 117.331Z" fill="#455136"/>
<path d="M98.0741 26.4809H115.471C116.538 26.4809 117.404 25.6154 117.404 24.5479C117.404 23.4804 116.538 22.6149 115.471 22.6149H98.0741C97.0066 22.6149 96.1411 23.4804 96.1411 24.5479C96.1411 25.6154 97.0066 26.4809 98.0741 26.4809Z" fill="#455136"/>
<path d="M98.0741 36.1458H115.471C116.538 36.1458 117.404 35.2803 117.404 34.2129C117.404 33.1454 116.538 32.2799 115.471 32.2799H98.0741C97.0066 32.2799 96.1411 33.1454 96.1411 34.2129C96.1411 35.2803 97.0066 36.1458 98.0741 36.1458Z" fill="#455136"/>
<path d="M115.471 41.9448H105.806C104.739 41.9448 103.873 42.8103 103.873 43.8778C103.873 44.9453 104.739 45.8108 105.806 45.8108H115.471C116.539 45.8108 117.404 44.9453 117.404 43.8778C117.404 42.8103 116.539 41.9448 115.471 41.9448Z" fill="#455136"/>
<path d="M115.471 51.6098H105.806C104.739 51.6098 103.873 52.4753 103.873 53.5427C103.873 54.6102 104.739 55.4757 105.806 55.4757H115.471C116.539 55.4757 117.404 54.6102 117.404 53.5427C117.404 52.4753 116.539 51.6098 115.471 51.6098Z" fill="#455136"/>
<path d="M101.94 67.0737C100.873 67.0737 100.007 67.9392 100.007 69.0066C100.007 70.0741 100.873 70.9396 101.94 70.9396H113.538C115.673 70.9396 117.404 69.2086 117.404 67.0737V63.2077C117.404 61.0727 115.673 59.3417 113.538 59.3417H101.94C100.873 59.3417 100.007 60.2072 100.007 61.2747C100.007 62.3422 100.873 63.2077 101.94 63.2077H113.538V67.0737H101.94Z" fill="#455136"/>
</g>
<path d="M29.2215 195V181.88H33.3215C33.9882 181.88 34.6015 181.947 35.1615 182.08C35.7348 182.2 36.2215 182.407 36.6215 182.7C37.0348 182.993 37.3548 183.373 37.5815 183.84C37.8082 184.307 37.9215 184.88 37.9215 185.56C37.9215 186.587 37.6548 187.407 37.1215 188.02C36.5882 188.633 35.8682 189.053 34.9615 189.28L38.3015 195H36.4215L33.2615 189.46H30.8815V195H29.2215ZM30.8815 188.1H33.0815C34.1082 188.1 34.8948 187.893 35.4415 187.48C35.9882 187.053 36.2615 186.413 36.2615 185.56C36.2615 184.693 35.9882 184.087 35.4415 183.74C34.8948 183.393 34.1082 183.22 33.0815 183.22H30.8815V188.1ZM44.7929 195.24C44.1396 195.24 43.5262 195.127 42.9529 194.9C42.3929 194.66 41.8996 194.327 41.4729 193.9C41.0596 193.46 40.7329 192.927 40.4929 192.3C40.2529 191.673 40.1329 190.96 40.1329 190.16C40.1329 189.36 40.2529 188.647 40.4929 188.02C40.7462 187.38 41.0729 186.84 41.4729 186.4C41.8862 185.96 42.3529 185.627 42.8729 185.4C43.3929 185.16 43.9329 185.04 44.4929 185.04C45.1062 185.04 45.6529 185.147 46.1329 185.36C46.6262 185.573 47.0329 185.88 47.3529 186.28C47.6862 186.68 47.9396 187.16 48.1129 187.72C48.2862 188.28 48.3729 188.907 48.3729 189.6C48.3729 189.773 48.3662 189.947 48.3529 190.12C48.3529 190.28 48.3396 190.42 48.3129 190.54H41.7529C41.8196 191.58 42.1396 192.407 42.7129 193.02C43.2996 193.62 44.0596 193.92 44.9929 193.92C45.4596 193.92 45.8862 193.853 46.2729 193.72C46.6729 193.573 47.0529 193.387 47.4129 193.16L47.9929 194.24C47.5662 194.507 47.0929 194.74 46.5729 194.94C46.0529 195.14 45.4596 195.24 44.7929 195.24ZM41.7329 189.36H46.9329C46.9329 188.373 46.7196 187.627 46.2929 187.12C45.8796 186.6 45.2929 186.34 44.5329 186.34C44.1862 186.34 43.8529 186.407 43.5329 186.54C43.2262 186.673 42.9462 186.873 42.6929 187.14C42.4396 187.393 42.2262 187.707 42.0529 188.08C41.8929 188.453 41.7862 188.88 41.7329 189.36ZM53.9148 195.24C53.2214 195.24 52.5614 195.113 51.9348 194.86C51.3081 194.607 50.7614 194.287 50.2948 193.9L51.1148 192.8C51.5414 193.147 51.9748 193.427 52.4148 193.64C52.8681 193.853 53.3881 193.96 53.9748 193.96C54.6148 193.96 55.0948 193.813 55.4148 193.52C55.7348 193.227 55.8948 192.867 55.8948 192.44C55.8948 192.187 55.8281 191.967 55.6948 191.78C55.5614 191.593 55.3881 191.433 55.1748 191.3C54.9748 191.153 54.7414 191.027 54.4748 190.92C54.2081 190.813 53.9414 190.707 53.6748 190.6C53.3281 190.48 52.9814 190.347 52.6348 190.2C52.2881 190.04 51.9748 189.853 51.6948 189.64C51.4281 189.413 51.2081 189.153 51.0348 188.86C50.8614 188.567 50.7748 188.213 50.7748 187.8C50.7748 187.413 50.8481 187.053 50.9948 186.72C51.1548 186.373 51.3748 186.08 51.6548 185.84C51.9481 185.587 52.3014 185.393 52.7148 185.26C53.1281 185.113 53.5948 185.04 54.1148 185.04C54.7281 185.04 55.2881 185.147 55.7948 185.36C56.3148 185.573 56.7614 185.833 57.1348 186.14L56.3548 187.18C56.0214 186.927 55.6748 186.72 55.3148 186.56C54.9548 186.4 54.5614 186.32 54.1348 186.32C53.5214 186.32 53.0681 186.46 52.7748 186.74C52.4948 187.02 52.3548 187.347 52.3548 187.72C52.3548 187.947 52.4148 188.147 52.5348 188.32C52.6548 188.48 52.8148 188.627 53.0148 188.76C53.2148 188.88 53.4414 188.993 53.6948 189.1C53.9614 189.193 54.2348 189.293 54.5148 189.4C54.8614 189.533 55.2081 189.673 55.5548 189.82C55.9148 189.967 56.2348 190.153 56.5148 190.38C56.7948 190.593 57.0214 190.86 57.1948 191.18C57.3814 191.5 57.4748 191.887 57.4748 192.34C57.4748 192.74 57.3948 193.113 57.2348 193.46C57.0881 193.807 56.8614 194.113 56.5548 194.38C56.2614 194.647 55.8881 194.853 55.4348 195C54.9948 195.16 54.4881 195.24 53.9148 195.24ZM64.2937 195.24C63.6403 195.24 63.027 195.127 62.4537 194.9C61.8937 194.66 61.4003 194.327 60.9737 193.9C60.5603 193.46 60.2337 192.927 59.9937 192.3C59.7537 191.673 59.6337 190.96 59.6337 190.16C59.6337 189.36 59.7537 188.647 59.9937 188.02C60.247 187.38 60.5737 186.84 60.9737 186.4C61.387 185.96 61.8537 185.627 62.3737 185.4C62.8937 185.16 63.4337 185.04 63.9937 185.04C64.607 185.04 65.1537 185.147 65.6337 185.36C66.127 185.573 66.5337 185.88 66.8537 186.28C67.187 186.68 67.4403 187.16 67.6137 187.72C67.787 188.28 67.8737 188.907 67.8737 189.6C67.8737 189.773 67.867 189.947 67.8537 190.12C67.8537 190.28 67.8403 190.42 67.8137 190.54H61.2537C61.3203 191.58 61.6403 192.407 62.2137 193.02C62.8003 193.62 63.5603 193.92 64.4937 193.92C64.9603 193.92 65.387 193.853 65.7737 193.72C66.1737 193.573 66.5537 193.387 66.9137 193.16L67.4937 194.24C67.067 194.507 66.5937 194.74 66.0737 194.94C65.5537 195.14 64.9603 195.24 64.2937 195.24ZM61.2337 189.36H66.4337C66.4337 188.373 66.2203 187.627 65.7937 187.12C65.3803 186.6 64.7937 186.34 64.0337 186.34C63.687 186.34 63.3537 186.407 63.0337 186.54C62.727 186.673 62.447 186.873 62.1937 187.14C61.9403 187.393 61.727 187.707 61.5537 188.08C61.3937 188.453 61.287 188.88 61.2337 189.36ZM72.8421 195.24C72.0288 195.24 71.3488 195 70.8021 194.52C70.2688 194.04 70.0021 193.36 70.0021 192.48C70.0021 191.413 70.4754 190.6 71.4221 190.04C72.3688 189.467 73.8821 189.067 75.9621 188.84C75.9621 188.533 75.9288 188.233 75.8621 187.94C75.8088 187.647 75.7088 187.387 75.5621 187.16C75.4154 186.933 75.2088 186.753 74.9421 186.62C74.6888 186.473 74.3621 186.4 73.9621 186.4C73.4021 186.4 72.8754 186.507 72.3821 186.72C71.8888 186.933 71.4488 187.173 71.0621 187.44L70.4221 186.3C70.8754 186.007 71.4288 185.727 72.0821 185.46C72.7354 185.18 73.4554 185.04 74.2421 185.04C75.4288 185.04 76.2888 185.407 76.8221 186.14C77.3554 186.86 77.6221 187.827 77.6221 189.04V195H76.2621L76.1221 193.84H76.0621C75.5954 194.227 75.0954 194.56 74.5621 194.84C74.0288 195.107 73.4554 195.24 72.8421 195.24ZM73.3221 193.92C73.7888 193.92 74.2288 193.813 74.6421 193.6C75.0554 193.373 75.4954 193.047 75.9621 192.62V189.92C75.1488 190.027 74.4621 190.153 73.9021 190.3C73.3554 190.447 72.9088 190.62 72.5621 190.82C72.2288 191.02 71.9821 191.253 71.8221 191.52C71.6754 191.773 71.6021 192.053 71.6021 192.36C71.6021 192.92 71.7688 193.32 72.1021 193.56C72.4354 193.8 72.8421 193.92 73.3221 193.92ZM81.2802 195V185.28H82.6402L82.7802 187.04H82.8402C83.1736 186.427 83.5736 185.94 84.0402 185.58C84.5202 185.22 85.0402 185.04 85.6002 185.04C85.9869 185.04 86.3336 185.107 86.6402 185.24L86.3202 186.68C86.1602 186.627 86.0136 186.587 85.8802 186.56C85.7469 186.533 85.5802 186.52 85.3802 186.52C84.9669 186.52 84.5336 186.687 84.0802 187.02C83.6402 187.353 83.2536 187.933 82.9202 188.76V195H81.2802ZM92.4585 195.24C91.8185 195.24 91.2185 195.127 90.6585 194.9C90.0985 194.673 89.6118 194.347 89.1985 193.92C88.7985 193.48 88.4785 192.947 88.2385 192.32C88.0118 191.68 87.8985 190.96 87.8985 190.16C87.8985 189.347 88.0252 188.627 88.2785 188C88.5318 187.36 88.8718 186.82 89.2985 186.38C89.7252 185.94 90.2185 185.607 90.7785 185.38C91.3518 185.153 91.9518 185.04 92.5785 185.04C93.2185 185.04 93.7652 185.153 94.2185 185.38C94.6718 185.607 95.0718 185.873 95.4185 186.18L94.5785 187.26C94.2985 187.007 93.9985 186.8 93.6785 186.64C93.3718 186.48 93.0252 186.4 92.6385 186.4C92.1985 186.4 91.7918 186.493 91.4185 186.68C91.0452 186.853 90.7252 187.107 90.4585 187.44C90.1918 187.773 89.9785 188.173 89.8185 188.64C89.6718 189.093 89.5985 189.6 89.5985 190.16C89.5985 190.72 89.6718 191.227 89.8185 191.68C89.9652 192.133 90.1652 192.527 90.4185 192.86C90.6852 193.18 91.0052 193.433 91.3785 193.62C91.7518 193.793 92.1585 193.88 92.5985 193.88C93.0518 193.88 93.4652 193.787 93.8385 193.6C94.2252 193.4 94.5718 193.167 94.8785 192.9L95.5985 194C95.1585 194.387 94.6718 194.693 94.1385 194.92C93.6052 195.133 93.0452 195.24 92.4585 195.24ZM98.3396 195V180.76H99.9796V184.64L99.9196 186.64C100.386 186.2 100.873 185.827 101.38 185.52C101.886 185.2 102.48 185.04 103.16 185.04C104.186 185.04 104.933 185.36 105.4 186C105.88 186.64 106.12 187.587 106.12 188.84V195H104.48V189.06C104.48 188.14 104.333 187.48 104.04 187.08C103.746 186.667 103.28 186.46 102.64 186.46C102.133 186.46 101.686 186.587 101.3 186.84C100.913 187.093 100.473 187.467 99.9796 187.96V195H98.3396Z" fill="#232323"/>
<circle cx="372.5" cy="56.5" r="56.5" fill="#BCC2A9" fill-opacity="0.49"/>
<path d="M420 69C420 37.0199 393.98 11 362 11C330.02 11 304 37.0199 304 69C304 85.8917 311.264 101.117 322.826 111.726L322.771 111.774L324.652 113.361C324.775 113.464 324.907 113.548 325.03 113.649C326.029 114.478 327.065 115.265 328.12 116.026C328.461 116.273 328.803 116.52 329.151 116.76C330.277 117.537 331.433 118.273 332.614 118.971C332.871 119.123 333.131 119.27 333.39 119.418C334.683 120.154 336.003 120.848 337.355 121.485C337.454 121.531 337.556 121.573 337.655 121.62C342.061 123.668 346.764 125.171 351.682 126.059C351.811 126.083 351.94 126.106 352.07 126.129C353.597 126.393 355.141 126.603 356.704 126.745C356.894 126.762 357.084 126.772 357.276 126.789C358.832 126.918 360.406 127 362 127C363.58 127 365.138 126.918 366.686 126.793C366.883 126.776 367.079 126.766 367.275 126.749C368.825 126.608 370.356 126.403 371.868 126.144C371.999 126.121 372.132 126.097 372.263 126.072C377.107 125.203 381.743 123.733 386.092 121.738C386.252 121.664 386.415 121.594 386.575 121.518C387.876 120.907 389.148 120.247 390.395 119.544C390.705 119.369 391.013 119.192 391.321 119.011C392.455 118.342 393.571 117.644 394.655 116.902C395.045 116.636 395.427 116.355 395.813 116.077C396.739 115.411 397.648 114.723 398.532 114.004C398.728 113.846 398.939 113.709 399.131 113.546L401.06 111.935L401.003 111.886C412.667 101.273 420 85.9782 420 69ZM308.218 69C308.218 39.3441 332.344 15.2182 362 15.2182C391.656 15.2182 415.782 39.3441 415.782 69C415.782 84.9806 408.769 99.3477 397.667 109.206C397.047 108.777 396.422 108.394 395.783 108.073L377.926 99.1452C376.323 98.3438 375.327 96.7324 375.327 94.9418V88.7052C375.741 88.1948 376.177 87.6169 376.629 86.9821C378.94 83.7172 380.794 80.0854 382.146 76.1772C384.818 74.9076 386.543 72.2459 386.543 69.2404V61.7637C386.543 59.9351 385.873 58.1614 384.673 56.7673V46.9241C384.782 45.8295 385.17 39.652 380.701 34.5564C376.814 30.1189 370.523 27.8727 362 27.8727C353.477 27.8727 347.186 30.1189 343.299 34.5543C338.83 39.6499 339.218 45.8274 339.327 46.922V56.7652C338.129 58.1593 337.457 59.933 337.457 61.7616V69.2383C337.457 71.5604 338.498 73.7265 340.283 75.1881C341.991 81.8802 345.507 86.9463 346.806 88.6631V94.7668C346.806 96.4878 345.868 98.0696 344.355 98.8964L327.679 107.993C327.147 108.282 326.62 108.619 326.093 108.997C315.128 99.1431 308.218 84.8646 308.218 69ZM393.55 112.515C392.812 113.05 392.061 113.569 391.299 114.065C390.949 114.293 390.601 114.521 390.245 114.742C389.249 115.358 388.237 115.944 387.204 116.493C386.976 116.613 386.746 116.727 386.516 116.845C384.141 118.062 381.684 119.108 379.16 119.958C379.071 119.987 378.982 120.019 378.892 120.048C377.569 120.487 376.23 120.877 374.876 121.213C374.872 121.213 374.868 121.215 374.863 121.215C373.497 121.552 372.113 121.833 370.721 122.063C370.683 122.069 370.645 122.077 370.607 122.084C369.297 122.297 367.977 122.451 366.653 122.567C366.419 122.588 366.184 122.603 365.948 122.619C364.638 122.719 363.322 122.782 362 122.782C360.663 122.782 359.33 122.716 358.003 122.617C357.773 122.6 357.543 122.586 357.316 122.565C355.979 122.446 354.648 122.288 353.33 122.073C353.27 122.063 353.211 122.052 353.152 122.042C350.364 121.575 347.62 120.89 344.948 119.994C344.866 119.966 344.781 119.937 344.699 119.909C343.373 119.458 342.061 118.958 340.772 118.405C340.764 118.401 340.753 118.397 340.745 118.393C339.526 117.868 338.33 117.286 337.149 116.672C336.995 116.592 336.839 116.516 336.687 116.433C335.609 115.858 334.554 115.235 333.515 114.586C333.207 114.392 332.901 114.196 332.597 113.997C331.64 113.371 330.695 112.719 329.775 112.03C329.68 111.958 329.59 111.882 329.495 111.81C329.562 111.772 329.63 111.734 329.697 111.696L346.374 102.6C349.242 101.035 351.024 98.0337 351.024 94.7668L351.022 87.1698L350.537 86.5835C350.491 86.5308 345.931 80.9839 344.208 73.4734L344.016 72.6382L343.297 72.1721C342.282 71.5161 341.675 70.4194 341.675 69.2362V61.7595C341.675 60.7788 342.09 59.8655 342.849 59.1801L343.545 58.5516V46.8039L343.526 46.5276C343.52 46.477 342.898 41.4047 346.471 37.332C349.521 33.8562 354.747 32.0909 362 32.0909C369.226 32.0909 374.435 33.8415 377.493 37.2919C381.062 41.3224 380.478 46.4897 380.474 46.5319L380.455 58.5558L381.151 59.1843C381.908 59.8676 382.325 60.783 382.325 61.7637V69.2404C382.325 70.7442 381.302 72.1088 379.834 72.5622L378.786 72.8849L378.449 73.9289C377.204 77.7949 375.433 81.3656 373.185 84.5419C372.632 85.3222 372.094 86.014 371.632 86.5434L371.109 87.1403V94.9418C371.109 98.3417 372.999 101.4 376.04 102.918L393.898 111.846C394.012 111.903 394.124 111.962 394.235 112.021C394.01 112.192 393.778 112.35 393.55 112.515Z" fill="#455136"/>
<path d="M278.995 195V181.88H286.555V183.28H280.655V187.4H285.635V188.82H280.655V193.58H286.755V195H278.995ZM289.982 195V185.28H291.342L291.482 186.68H291.542C291.968 186.213 292.428 185.827 292.922 185.52C293.428 185.2 293.975 185.04 294.562 185.04C295.308 185.04 295.888 185.207 296.302 185.54C296.728 185.86 297.042 186.313 297.242 186.9C297.748 186.34 298.255 185.893 298.762 185.56C299.282 185.213 299.842 185.04 300.442 185.04C301.442 185.04 302.182 185.36 302.662 186C303.155 186.64 303.402 187.587 303.402 188.84V195H301.762V189.06C301.762 188.14 301.615 187.48 301.322 187.08C301.028 186.667 300.575 186.46 299.962 186.46C299.228 186.46 298.415 186.96 297.522 187.96V195H295.882V189.06C295.882 188.14 295.735 187.48 295.442 187.08C295.148 186.667 294.688 186.46 294.062 186.46C293.328 186.46 292.515 186.96 291.622 187.96V195H289.982ZM307.164 199.1V185.28H308.524L308.664 186.4H308.724C309.164 186.027 309.644 185.707 310.164 185.44C310.697 185.173 311.25 185.04 311.824 185.04C312.45 185.04 313.004 185.16 313.484 185.4C313.964 185.627 314.364 185.96 314.684 186.4C315.004 186.827 315.244 187.347 315.404 187.96C315.577 188.56 315.664 189.24 315.664 190C315.664 190.827 315.55 191.567 315.324 192.22C315.097 192.86 314.79 193.407 314.404 193.86C314.017 194.313 313.57 194.66 313.064 194.9C312.557 195.127 312.024 195.24 311.464 195.24C311.01 195.24 310.557 195.14 310.104 194.94C309.664 194.74 309.217 194.467 308.764 194.12L308.804 195.82V199.1H307.164ZM311.184 193.86C311.584 193.86 311.95 193.773 312.284 193.6C312.63 193.413 312.924 193.16 313.164 192.84C313.417 192.507 313.61 192.1 313.744 191.62C313.89 191.14 313.964 190.6 313.964 190C313.964 189.467 313.917 188.98 313.824 188.54C313.73 188.1 313.577 187.727 313.364 187.42C313.164 187.1 312.897 186.853 312.564 186.68C312.244 186.507 311.857 186.42 311.404 186.42C310.99 186.42 310.57 186.533 310.144 186.76C309.73 186.987 309.284 187.313 308.804 187.74V192.84C309.244 193.213 309.67 193.48 310.084 193.64C310.497 193.787 310.864 193.86 311.184 193.86ZM320.824 195.24C320.011 195.24 319.331 195 318.784 194.52C318.251 194.04 317.984 193.36 317.984 192.48C317.984 191.413 318.457 190.6 319.404 190.04C320.351 189.467 321.864 189.067 323.944 188.84C323.944 188.533 323.911 188.233 323.844 187.94C323.791 187.647 323.691 187.387 323.544 187.16C323.397 186.933 323.191 186.753 322.924 186.62C322.671 186.473 322.344 186.4 321.944 186.4C321.384 186.4 320.857 186.507 320.364 186.72C319.871 186.933 319.431 187.173 319.044 187.44L318.404 186.3C318.857 186.007 319.411 185.727 320.064 185.46C320.717 185.18 321.437 185.04 322.224 185.04C323.411 185.04 324.271 185.407 324.804 186.14C325.337 186.86 325.604 187.827 325.604 189.04V195H324.244L324.104 193.84H324.044C323.577 194.227 323.077 194.56 322.544 194.84C322.011 195.107 321.437 195.24 320.824 195.24ZM321.304 193.92C321.771 193.92 322.211 193.813 322.624 193.6C323.037 193.373 323.477 193.047 323.944 192.62V189.92C323.131 190.027 322.444 190.153 321.884 190.3C321.337 190.447 320.891 190.62 320.544 190.82C320.211 191.02 319.964 191.253 319.804 191.52C319.657 191.773 319.584 192.053 319.584 192.36C319.584 192.92 319.751 193.32 320.084 193.56C320.417 193.8 320.824 193.92 321.304 193.92ZM332.049 195.24C331.529 195.24 331.089 195.16 330.729 195C330.382 194.84 330.095 194.62 329.869 194.34C329.655 194.06 329.502 193.72 329.409 193.32C329.315 192.92 329.269 192.48 329.269 192V186.62H327.829V185.38L329.349 185.28L329.549 182.56H330.929V185.28H333.549V186.62H330.929V192.02C330.929 192.62 331.035 193.087 331.249 193.42C331.475 193.74 331.869 193.9 332.429 193.9C332.602 193.9 332.789 193.873 332.989 193.82C333.189 193.767 333.369 193.707 333.529 193.64L333.849 194.88C333.582 194.973 333.289 195.053 332.969 195.12C332.662 195.2 332.355 195.24 332.049 195.24ZM336.347 195V180.76H337.987V184.64L337.927 186.64C338.393 186.2 338.88 185.827 339.387 185.52C339.893 185.2 340.487 185.04 341.167 185.04C342.193 185.04 342.94 185.36 343.407 186C343.887 186.64 344.127 187.587 344.127 188.84V195H342.487V189.06C342.487 188.14 342.34 187.48 342.047 187.08C341.753 186.667 341.287 186.46 340.647 186.46C340.14 186.46 339.693 186.587 339.307 186.84C338.92 187.093 338.48 187.467 337.987 187.96V195H336.347ZM347.826 195V185.28H349.466V195H347.826ZM348.666 183.28C348.346 183.28 348.072 183.18 347.846 182.98C347.632 182.78 347.526 182.527 347.526 182.22C347.526 181.9 347.632 181.647 347.846 181.46C348.072 181.26 348.346 181.16 348.666 181.16C348.986 181.16 349.252 181.26 349.466 181.46C349.692 181.647 349.806 181.9 349.806 182.22C349.806 182.527 349.692 182.78 349.466 182.98C349.252 183.18 348.986 183.28 348.666 183.28ZM355.887 195.24C355.194 195.24 354.534 195.113 353.907 194.86C353.281 194.607 352.734 194.287 352.267 193.9L353.087 192.8C353.514 193.147 353.947 193.427 354.387 193.64C354.841 193.853 355.361 193.96 355.947 193.96C356.587 193.96 357.067 193.813 357.387 193.52C357.707 193.227 357.867 192.867 357.867 192.44C357.867 192.187 357.801 191.967 357.667 191.78C357.534 191.593 357.361 191.433 357.147 191.3C356.947 191.153 356.714 191.027 356.447 190.92C356.181 190.813 355.914 190.707 355.647 190.6C355.301 190.48 354.954 190.347 354.607 190.2C354.261 190.04 353.947 189.853 353.667 189.64C353.401 189.413 353.181 189.153 353.007 188.86C352.834 188.567 352.747 188.213 352.747 187.8C352.747 187.413 352.821 187.053 352.967 186.72C353.127 186.373 353.347 186.08 353.627 185.84C353.921 185.587 354.274 185.393 354.687 185.26C355.101 185.113 355.567 185.04 356.087 185.04C356.701 185.04 357.261 185.147 357.767 185.36C358.287 185.573 358.734 185.833 359.107 186.14L358.327 187.18C357.994 186.927 357.647 186.72 357.287 186.56C356.927 186.4 356.534 186.32 356.107 186.32C355.494 186.32 355.041 186.46 354.747 186.74C354.467 187.02 354.327 187.347 354.327 187.72C354.327 187.947 354.387 188.147 354.507 188.32C354.627 188.48 354.787 188.627 354.987 188.76C355.187 188.88 355.414 188.993 355.667 189.1C355.934 189.193 356.207 189.293 356.487 189.4C356.834 189.533 357.181 189.673 357.527 189.82C357.887 189.967 358.207 190.153 358.487 190.38C358.767 190.593 358.994 190.86 359.167 191.18C359.354 191.5 359.447 191.887 359.447 192.34C359.447 192.74 359.367 193.113 359.207 193.46C359.061 193.807 358.834 194.113 358.527 194.38C358.234 194.647 357.861 194.853 357.407 195C356.967 195.16 356.461 195.24 355.887 195.24ZM366.266 195.24C365.613 195.24 365 195.127 364.426 194.9C363.866 194.66 363.373 194.327 362.946 193.9C362.533 193.46 362.206 192.927 361.966 192.3C361.726 191.673 361.606 190.96 361.606 190.16C361.606 189.36 361.726 188.647 361.966 188.02C362.22 187.38 362.546 186.84 362.946 186.4C363.36 185.96 363.826 185.627 364.346 185.4C364.866 185.16 365.406 185.04 365.966 185.04C366.58 185.04 367.126 185.147 367.606 185.36C368.1 185.573 368.506 185.88 368.826 186.28C369.16 186.68 369.413 187.16 369.586 187.72C369.76 188.28 369.846 188.907 369.846 189.6C369.846 189.773 369.84 189.947 369.826 190.12C369.826 190.28 369.813 190.42 369.786 190.54H363.226C363.293 191.58 363.613 192.407 364.186 193.02C364.773 193.62 365.533 193.92 366.466 193.92C366.933 193.92 367.36 193.853 367.746 193.72C368.146 193.573 368.526 193.387 368.886 193.16L369.466 194.24C369.04 194.507 368.566 194.74 368.046 194.94C367.526 195.14 366.933 195.24 366.266 195.24ZM363.206 189.36H368.406C368.406 188.373 368.193 187.627 367.766 187.12C367.353 186.6 366.766 186.34 366.006 186.34C365.66 186.34 365.326 186.407 365.006 186.54C364.7 186.673 364.42 186.873 364.166 187.14C363.913 187.393 363.7 187.707 363.526 188.08C363.366 188.453 363.26 188.88 363.206 189.36ZM380.132 192.92V189.02H376.492V187.78H380.132V183.88H381.432V187.78H385.072V189.02H381.432V192.92H380.132ZM392.757 195V181.88H396.037C398.064 181.88 399.604 182.44 400.657 183.56C401.711 184.68 402.237 186.287 402.237 188.38C402.237 189.42 402.104 190.353 401.837 191.18C401.571 191.993 401.177 192.687 400.657 193.26C400.137 193.82 399.497 194.253 398.737 194.56C397.977 194.853 397.104 195 396.117 195H392.757ZM394.417 193.64H395.917C397.451 193.64 398.597 193.18 399.357 192.26C400.131 191.34 400.517 190.047 400.517 188.38C400.517 186.713 400.131 185.44 399.357 184.56C398.597 183.68 397.451 183.24 395.917 183.24H394.417V193.64ZM409.442 195.24C408.789 195.24 408.175 195.127 407.602 194.9C407.042 194.66 406.549 194.327 406.122 193.9C405.709 193.46 405.382 192.927 405.142 192.3C404.902 191.673 404.782 190.96 404.782 190.16C404.782 189.36 404.902 188.647 405.142 188.02C405.395 187.38 405.722 186.84 406.122 186.4C406.535 185.96 407.002 185.627 407.522 185.4C408.042 185.16 408.582 185.04 409.142 185.04C409.755 185.04 410.302 185.147 410.782 185.36C411.275 185.573 411.682 185.88 412.002 186.28C412.335 186.68 412.589 187.16 412.762 187.72C412.935 188.28 413.022 188.907 413.022 189.6C413.022 189.773 413.015 189.947 413.002 190.12C413.002 190.28 412.989 190.42 412.962 190.54H406.402C406.469 191.58 406.789 192.407 407.362 193.02C407.949 193.62 408.709 193.92 409.642 193.92C410.109 193.92 410.535 193.853 410.922 193.72C411.322 193.573 411.702 193.387 412.062 193.16L412.642 194.24C412.215 194.507 411.742 194.74 411.222 194.94C410.702 195.14 410.109 195.24 409.442 195.24ZM406.382 189.36H411.582C411.582 188.373 411.369 187.627 410.942 187.12C410.529 186.6 409.942 186.34 409.182 186.34C408.835 186.34 408.502 186.407 408.182 186.54C407.875 186.673 407.595 186.873 407.342 187.14C407.089 187.393 406.875 187.707 406.702 188.08C406.542 188.453 406.435 188.88 406.382 189.36ZM416.304 195V186.62H414.984V185.38L416.304 185.28V183.74C416.304 182.74 416.531 181.953 416.984 181.38C417.451 180.807 418.171 180.52 419.144 180.52C419.451 180.52 419.737 180.553 420.004 180.62C420.284 180.673 420.537 180.747 420.764 180.84L420.404 182.1C420.044 181.94 419.677 181.86 419.304 181.86C418.397 181.86 417.944 182.487 417.944 183.74V185.28H420.004V186.62H417.944V195H416.304ZM422.464 195V185.28H424.104V195H422.464ZM423.304 183.28C422.984 183.28 422.71 183.18 422.484 182.98C422.27 182.78 422.164 182.527 422.164 182.22C422.164 181.9 422.27 181.647 422.484 181.46C422.71 181.26 422.984 181.16 423.304 181.16C423.624 181.16 423.89 181.26 424.104 181.46C424.33 181.647 424.444 181.9 424.444 182.22C424.444 182.527 424.33 182.78 424.104 182.98C423.89 183.18 423.624 183.28 423.304 183.28ZM427.986 195V185.28H429.346L429.486 186.68H429.546C430.012 186.213 430.499 185.827 431.006 185.52C431.526 185.2 432.126 185.04 432.806 185.04C433.832 185.04 434.579 185.36 435.046 186C435.526 186.64 435.766 187.587 435.766 188.84V195H434.126V189.06C434.126 188.14 433.979 187.48 433.686 187.08C433.392 186.667 432.926 186.46 432.286 186.46C431.779 186.46 431.332 186.587 430.946 186.84C430.559 187.093 430.119 187.467 429.626 187.96V195H427.986ZM443.463 195.24C442.81 195.24 442.197 195.127 441.623 194.9C441.063 194.66 440.57 194.327 440.143 193.9C439.73 193.46 439.403 192.927 439.163 192.3C438.923 191.673 438.803 190.96 438.803 190.16C438.803 189.36 438.923 188.647 439.163 188.02C439.417 187.38 439.743 186.84 440.143 186.4C440.557 185.96 441.023 185.627 441.543 185.4C442.063 185.16 442.603 185.04 443.163 185.04C443.777 185.04 444.323 185.147 444.803 185.36C445.297 185.573 445.703 185.88 446.023 186.28C446.357 186.68 446.61 187.16 446.783 187.72C446.957 188.28 447.043 188.907 447.043 189.6C447.043 189.773 447.037 189.947 447.023 190.12C447.023 190.28 447.01 190.42 446.983 190.54H440.423C440.49 191.58 440.81 192.407 441.383 193.02C441.97 193.62 442.73 193.92 443.663 193.92C444.13 193.92 444.557 193.853 444.943 193.72C445.343 193.573 445.723 193.387 446.083 193.16L446.663 194.24C446.237 194.507 445.763 194.74 445.243 194.94C444.723 195.14 444.13 195.24 443.463 195.24ZM440.403 189.36H445.603C445.603 188.373 445.39 187.627 444.963 187.12C444.55 186.6 443.963 186.34 443.203 186.34C442.857 186.34 442.523 186.407 442.203 186.54C441.897 186.673 441.617 186.873 441.363 187.14C441.11 187.393 440.897 187.707 440.723 188.08C440.563 188.453 440.457 188.88 440.403 189.36Z" fill="#232323"/>
<path d="M735.5 49H652C651.667 49 650.9 49.7 650.5 52.5C650.1 55.3 651.333 60.3333 652 62.5L639 84L653.5 88V112.5H672.5V128.5H714.5V103C715 102.667 718.5 99.8 728.5 91C738.5 82.2 737.333 59.3333 735.5 49Z" fill="#BCC2A9" fill-opacity="0.49"/>
<path d="M729.775 19.0366L718.524 27.4583L707.209 53.839H698.11L694.538 46.0969H696.872C701.142 46.0969 704.614 42.6616 704.614 38.3918V30.6127H708.485V19H696.872V30.6127H700.743V38.3918C700.743 40.5249 699.007 42.2259 696.872 42.2259H692.751L687.804 31.5228L693.73 28.5691L674.325 20.258L669.763 36.2238C669.639 26.7246 661.884 19.035 652.355 19.035C642.75 19.035 634.936 26.8486 634.936 36.4543C634.936 42.2588 637.876 47.7032 642.678 50.9219V53.8386H637.99L637.688 55.4258C636.748 60.3053 636.66 65.3201 637.429 70.3214L624.225 93.857L638.807 97.1879V121.581H658.162V139H704.614V112.029C718.162 102.445 725.9 87.0343 725.888 70.5942L725.892 63.5337C725.892 60.8723 725.647 58.1376 725.151 55.4433L724.865 53.8386H721.065L729.775 32.9722V19.0366ZM700.742 26.7787V22.9076H704.614V26.7787H700.742ZM693.847 53.8386H686.505L682.987 46.0965H690.274L693.847 53.8386ZM676.837 25.5516L684.531 28.8479L682.716 29.738L688.487 42.2259H681.227L676.51 31.8731L674.778 32.7478L676.837 25.5516ZM682.253 53.839H673.646V50.0049C673.646 47.8703 675.382 46.0973 677.517 46.0973H678.734L682.253 53.839ZM674.652 37.1489L677 42.3149C672.974 42.586 669.775 45.9112 669.775 50.0045V53.8386H662.033V50.9219C665.906 48.3263 668.534 44.2756 669.42 39.764L674.652 37.1489ZM638.807 36.4563C638.807 28.9873 644.887 22.908 652.356 22.908C659.825 22.908 665.904 28.9873 665.904 36.4563C665.904 41.2642 663.307 45.7563 659.128 48.1775L658.162 48.7348V53.8386H654.291V41.9044C656.538 41.1033 658.162 38.9739 658.162 36.4539C658.162 33.2526 655.557 30.6473 652.356 30.6473C649.154 30.6473 646.549 33.253 646.549 36.4543C646.549 38.9743 648.173 41.1033 650.42 41.9048V53.839H646.549V48.7348L645.583 48.1755C641.405 45.7543 638.807 41.2638 638.807 36.4563ZM652.356 38.3918C651.287 38.3918 650.42 37.5224 650.42 36.4563C650.42 35.3877 651.287 34.5208 652.356 34.5208C653.424 34.5208 654.291 35.3877 654.291 36.4563C654.291 37.5249 653.424 38.3918 652.356 38.3918ZM721.607 57.7101C721.888 59.6452 722.029 61.6079 722.029 63.5162L722.033 70.5905C722.045 86.0958 714.394 100.616 701.594 109.428L700.743 110.009V135.129H662.033V117.71H642.678V94.1009L630.134 91.2383L641.464 71.0376L641.354 70.3466C640.634 66.1118 640.594 61.5807 641.219 57.7101H642.678H662.033H721.607ZM716.871 53.8386H711.419L721.067 31.3443L725.358 33.4811L716.871 53.8386ZM725.904 29.4515L723.763 28.3813L725.904 26.7787V29.4515Z" fill="#455136"/>
<path d="M656.227 69.3228C653.025 69.3228 650.42 67.3873 650.42 63.5162H646.549C646.549 69.3228 650.89 73.1938 656.227 73.1938C661.563 73.1938 665.904 69.3228 665.904 63.5162H662.033C662.033 67.3873 659.428 69.3228 656.227 69.3228Z" fill="#455136"/>
<path d="M650.696 195V181.88H652.356V195H650.696ZM659.71 195.24C658.484 195.24 657.504 194.8 656.77 193.92C656.05 193.04 655.69 191.787 655.69 190.16C655.69 189.373 655.804 188.667 656.03 188.04C656.27 187.4 656.584 186.86 656.97 186.42C657.357 185.98 657.804 185.64 658.31 185.4C658.817 185.16 659.35 185.04 659.91 185.04C660.47 185.04 660.957 185.14 661.37 185.34C661.784 185.54 662.204 185.813 662.63 186.16L662.55 184.5V180.76H664.21V195H662.85L662.71 193.86H662.65C662.264 194.233 661.817 194.56 661.31 194.84C660.817 195.107 660.284 195.24 659.71 195.24ZM660.07 193.86C660.524 193.86 660.95 193.753 661.35 193.54C661.75 193.313 662.15 192.973 662.55 192.52V187.44C662.137 187.067 661.737 186.807 661.35 186.66C660.977 186.5 660.59 186.42 660.19 186.42C659.804 186.42 659.437 186.513 659.09 186.7C658.757 186.873 658.464 187.127 658.21 187.46C657.957 187.78 657.757 188.167 657.61 188.62C657.464 189.073 657.39 189.58 657.39 190.14C657.39 191.313 657.624 192.227 658.09 192.88C658.557 193.533 659.217 193.86 660.07 193.86ZM672.024 195.24C671.371 195.24 670.757 195.127 670.184 194.9C669.624 194.66 669.131 194.327 668.704 193.9C668.291 193.46 667.964 192.927 667.724 192.3C667.484 191.673 667.364 190.96 667.364 190.16C667.364 189.36 667.484 188.647 667.724 188.02C667.977 187.38 668.304 186.84 668.704 186.4C669.117 185.96 669.584 185.627 670.104 185.4C670.624 185.16 671.164 185.04 671.724 185.04C672.337 185.04 672.884 185.147 673.364 185.36C673.857 185.573 674.264 185.88 674.584 186.28C674.917 186.68 675.171 187.16 675.344 187.72C675.517 188.28 675.604 188.907 675.604 189.6C675.604 189.773 675.597 189.947 675.584 190.12C675.584 190.28 675.571 190.42 675.544 190.54H668.984C669.051 191.58 669.371 192.407 669.944 193.02C670.531 193.62 671.291 193.92 672.224 193.92C672.691 193.92 673.117 193.853 673.504 193.72C673.904 193.573 674.284 193.387 674.644 193.16L675.224 194.24C674.797 194.507 674.324 194.74 673.804 194.94C673.284 195.14 672.691 195.24 672.024 195.24ZM668.964 189.36H674.164C674.164 188.373 673.951 187.627 673.524 187.12C673.111 186.6 672.524 186.34 671.764 186.34C671.417 186.34 671.084 186.407 670.764 186.54C670.457 186.673 670.177 186.873 669.924 187.14C669.671 187.393 669.457 187.707 669.284 188.08C669.124 188.453 669.017 188.88 668.964 189.36ZM680.573 195.24C679.759 195.24 679.079 195 678.533 194.52C677.999 194.04 677.733 193.36 677.733 192.48C677.733 191.413 678.206 190.6 679.153 190.04C680.099 189.467 681.613 189.067 683.693 188.84C683.693 188.533 683.659 188.233 683.593 187.94C683.539 187.647 683.439 187.387 683.293 187.16C683.146 186.933 682.939 186.753 682.673 186.62C682.419 186.473 682.093 186.4 681.693 186.4C681.133 186.4 680.606 186.507 680.113 186.72C679.619 186.933 679.179 187.173 678.793 187.44L678.153 186.3C678.606 186.007 679.159 185.727 679.813 185.46C680.466 185.18 681.186 185.04 681.973 185.04C683.159 185.04 684.019 185.407 684.553 186.14C685.086 186.86 685.353 187.827 685.353 189.04V195H683.993L683.853 193.84H683.793C683.326 194.227 682.826 194.56 682.293 194.84C681.759 195.107 681.186 195.24 680.573 195.24ZM681.053 193.92C681.519 193.92 681.959 193.813 682.373 193.6C682.786 193.373 683.226 193.047 683.693 192.62V189.92C682.879 190.027 682.193 190.153 681.633 190.3C681.086 190.447 680.639 190.62 680.293 190.82C679.959 191.02 679.713 191.253 679.553 191.52C679.406 191.773 679.333 192.053 679.333 192.36C679.333 192.92 679.499 193.32 679.833 193.56C680.166 193.8 680.573 193.92 681.053 193.92ZM691.797 195.24C691.277 195.24 690.837 195.16 690.477 195C690.131 194.84 689.844 194.62 689.617 194.34C689.404 194.06 689.251 193.72 689.157 193.32C689.064 192.92 689.017 192.48 689.017 192V186.62H687.577V185.38L689.097 185.28L689.297 182.56H690.677V185.28H693.297V186.62H690.677V192.02C690.677 192.62 690.784 193.087 690.997 193.42C691.224 193.74 691.617 193.9 692.177 193.9C692.351 193.9 692.537 193.873 692.737 193.82C692.937 193.767 693.117 193.707 693.277 193.64L693.597 194.88C693.331 194.973 693.037 195.053 692.717 195.12C692.411 195.2 692.104 195.24 691.797 195.24ZM699.762 195.24C699.108 195.24 698.495 195.127 697.922 194.9C697.362 194.66 696.868 194.327 696.442 193.9C696.028 193.46 695.702 192.927 695.462 192.3C695.222 191.673 695.102 190.96 695.102 190.16C695.102 189.36 695.222 188.647 695.462 188.02C695.715 187.38 696.042 186.84 696.442 186.4C696.855 185.96 697.322 185.627 697.842 185.4C698.362 185.16 698.902 185.04 699.462 185.04C700.075 185.04 700.622 185.147 701.102 185.36C701.595 185.573 702.002 185.88 702.322 186.28C702.655 186.68 702.908 187.16 703.082 187.72C703.255 188.28 703.342 188.907 703.342 189.6C703.342 189.773 703.335 189.947 703.322 190.12C703.322 190.28 703.308 190.42 703.282 190.54H696.722C696.788 191.58 697.108 192.407 697.682 193.02C698.268 193.62 699.028 193.92 699.962 193.92C700.428 193.92 700.855 193.853 701.242 193.72C701.642 193.573 702.022 193.387 702.382 193.16L702.962 194.24C702.535 194.507 702.062 194.74 701.542 194.94C701.022 195.14 700.428 195.24 699.762 195.24ZM696.702 189.36H701.902C701.902 188.373 701.688 187.627 701.262 187.12C700.848 186.6 700.262 186.34 699.502 186.34C699.155 186.34 698.822 186.407 698.502 186.54C698.195 186.673 697.915 186.873 697.662 187.14C697.408 187.393 697.195 187.707 697.022 188.08C696.862 188.453 696.755 188.88 696.702 189.36Z" fill="#232323"/>
<rect x="959" y="12" width="70" height="124" rx="7" fill="#BCC2A9" fill-opacity="0.49"/>
<g clip-path="url(#clip1)">
<path d="M1012.28 51.7333H960.717C959.622 51.7333 958.733 50.8448 958.733 49.75V29.9167C958.733 28.8219 959.622 27.9333 960.717 27.9333H1012.28C1013.38 27.9333 1014.27 28.8219 1014.27 29.9167V49.75C1014.27 50.8448 1013.38 51.7333 1012.28 51.7333ZM962.7 47.7667H1010.3V31.9H962.7V47.7667Z" fill="#475039"/>
<path d="M976.583 51.7333C975.489 51.7333 974.6 50.8448 974.6 49.75V29.9167C974.6 28.8219 975.489 27.9333 976.583 27.9333C977.678 27.9333 978.567 28.8219 978.567 29.9167V49.75C978.567 50.8448 977.678 51.7333 976.583 51.7333Z" fill="#475039"/>
<path d="M990.467 41.8167H984.517C983.422 41.8167 982.533 40.9281 982.533 39.8333C982.533 38.7385 983.422 37.85 984.517 37.85H990.467C991.561 37.85 992.45 38.7385 992.45 39.8333C992.45 40.9281 991.561 41.8167 990.467 41.8167Z" fill="#475039"/>
<path d="M1012.28 65.6167H1000.38C999.289 65.6167 998.4 64.7281 998.4 63.6333C998.4 62.5385 999.289 61.65 1000.38 61.65H1012.28C1013.38 61.65 1014.27 62.5385 1014.27 63.6333C1014.27 64.7281 1013.38 65.6167 1012.28 65.6167Z" fill="#475039"/>
<path d="M1012.28 77.5167H1000.38C999.289 77.5167 998.4 76.6281 998.4 75.5333C998.4 74.4385 999.289 73.55 1000.38 73.55H1012.28C1013.38 73.55 1014.27 74.4385 1014.27 75.5333C1014.27 76.6281 1013.38 77.5167 1012.28 77.5167Z" fill="#475039"/>
<path d="M1012.28 89.4167H1000.38C999.289 89.4167 998.4 88.5281 998.4 87.4333C998.4 86.3385 999.289 85.45 1000.38 85.45H1012.28C1013.38 85.45 1014.27 86.3385 1014.27 87.4333C1014.27 88.5281 1013.38 89.4167 1012.28 89.4167Z" fill="#475039"/>
<path d="M972.617 105.283H960.717C959.622 105.283 958.733 104.395 958.733 103.3C958.733 102.205 959.622 101.317 960.717 101.317H972.617C973.711 101.317 974.6 102.205 974.6 103.3C974.6 104.395 973.711 105.283 972.617 105.283Z" fill="#475039"/>
<path d="M1012.28 105.283H1000.38C999.289 105.283 998.4 104.395 998.4 103.3C998.4 102.205 999.289 101.317 1000.38 101.317H1012.28C1013.38 101.317 1014.27 102.205 1014.27 103.3C1014.27 104.395 1013.38 105.283 1012.28 105.283Z" fill="#475039"/>
<path d="M992.45 105.283H980.55C979.455 105.283 978.567 104.395 978.567 103.3C978.567 102.205 979.455 101.317 980.55 101.317H992.45C993.545 101.317 994.433 102.205 994.433 103.3C994.433 104.395 993.545 105.283 992.45 105.283Z" fill="#475039"/>
<path d="M1004.35 41.8167H998.4C997.305 41.8167 996.417 40.9281 996.417 39.8333C996.417 38.7385 997.305 37.85 998.4 37.85H1004.35C1005.44 37.85 1006.33 38.7385 1006.33 39.8333C1006.33 40.9281 1005.44 41.8167 1004.35 41.8167Z" fill="#475039"/>
<path d="M990.941 93.3833H962.226C960.3 93.3833 958.733 91.8165 958.733 89.8907V61.176C958.733 59.2502 960.3 57.6833 962.226 57.6833H990.943C992.867 57.6833 994.433 59.2502 994.433 61.176V89.8927C994.433 91.8165 992.867 93.3833 990.941 93.3833V93.3833ZM962.7 89.4167H990.467V61.65H962.7V89.4167Z" fill="#475039"/>
<path d="M960.717 83.4667C960.209 83.4667 959.701 83.2723 959.314 82.8856C958.539 82.1101 958.539 80.8566 959.314 80.0811L967.248 72.1478C968.021 71.3723 969.279 71.3723 970.052 72.1478C970.828 72.9233 970.828 74.1767 970.052 74.9522L962.119 82.8856C961.732 83.2723 961.224 83.4667 960.717 83.4667V83.4667Z" fill="#475039"/>
<path d="M976.583 83.4667C976.076 83.4667 975.568 83.2723 975.181 82.8856L967.248 74.9522C966.472 74.1767 966.472 72.9233 967.248 72.1478C968.021 71.3723 969.279 71.3723 970.052 72.1478L977.986 80.0811C978.761 80.8566 978.761 82.1101 977.986 82.8856C977.599 83.2723 977.091 83.4667 976.583 83.4667V83.4667Z" fill="#475039"/>
<path d="M974.6 79.5C974.092 79.5 973.585 79.3056 973.198 78.9189C972.422 78.1434 972.422 76.8899 973.198 76.1145L981.131 68.1811C981.905 67.4056 983.162 67.4056 983.936 68.1811C984.711 68.9566 984.711 70.2101 983.936 70.9856L976.002 78.9189C975.615 79.3056 975.108 79.5 974.6 79.5Z" fill="#475039"/>
<path d="M992.448 79.5C992.014 79.5 991.575 79.3572 991.21 79.0656L981.294 71.1323C980.439 70.4481 980.3 69.2005 980.984 68.3457C981.669 67.4889 982.916 67.3521 983.773 68.0363L993.69 75.9697C994.544 76.6539 994.683 77.9014 993.999 78.7562C993.606 79.2461 993.031 79.5 992.448 79.5Z" fill="#475039"/>
<path d="M1016.25 139H956.746C953.468 139 950.8 136.332 950.8 133.054V113.217C950.8 112.122 951.689 111.233 952.783 111.233H1020.22C1021.31 111.233 1022.2 112.122 1022.2 113.217V133.054C1022.2 136.332 1019.53 139 1016.25 139ZM954.767 115.2V133.054C954.767 134.145 955.655 135.033 956.746 135.033H1016.25C1017.34 135.033 1018.23 134.145 1018.23 133.054V115.2H954.767Z" fill="#475039"/>
<path d="M986.5 133.05C982.125 133.05 978.567 129.492 978.567 125.117C978.567 120.741 982.125 117.183 986.5 117.183C990.875 117.183 994.433 120.741 994.433 125.117C994.433 129.492 990.875 133.05 986.5 133.05ZM986.5 121.15C984.312 121.15 982.533 122.929 982.533 125.117C982.533 127.304 984.312 129.083 986.5 129.083C988.688 129.083 990.467 127.304 990.467 125.117C990.467 122.929 988.688 121.15 986.5 121.15Z" fill="#475039"/>
<path d="M1016.25 139H956.746C953.468 139 950.8 136.332 950.8 133.054V25.954C950.8 22.6715 953.47 20 956.752 20H1016.25C1019.53 20 1022.2 22.6715 1022.2 25.952V133.052C1022.2 136.332 1019.53 139 1016.25 139V139ZM956.752 23.9667C955.657 23.9667 954.767 24.8572 954.767 25.952V133.052C954.767 134.145 955.655 135.033 956.746 135.033H1016.25C1017.34 135.033 1018.23 134.145 1018.23 133.054V25.954C1018.23 24.8572 1017.34 23.9667 1016.25 23.9667H956.752Z" fill="#475039"/>
</g>
<path d="M944.562 195V181.88H948.302C949.035 181.88 949.702 181.947 950.302 182.08C950.915 182.213 951.435 182.433 951.862 182.74C952.289 183.033 952.622 183.427 952.862 183.92C953.102 184.413 953.222 185.02 953.222 185.74C953.222 186.433 953.102 187.033 952.862 187.54C952.635 188.047 952.309 188.467 951.882 188.8C951.455 189.133 950.942 189.387 950.342 189.56C949.755 189.72 949.102 189.8 948.382 189.8H946.222V195H944.562ZM946.222 188.44H948.182C949.329 188.44 950.175 188.227 950.722 187.8C951.282 187.36 951.562 186.673 951.562 185.74C951.562 184.793 951.269 184.14 950.682 183.78C950.109 183.407 949.249 183.22 948.102 183.22H946.222V188.44ZM956.33 195V185.28H957.69L957.83 187.04H957.89C958.224 186.427 958.624 185.94 959.09 185.58C959.57 185.22 960.09 185.04 960.65 185.04C961.037 185.04 961.384 185.107 961.69 185.24L961.37 186.68C961.21 186.627 961.064 186.587 960.93 186.56C960.797 186.533 960.63 186.52 960.43 186.52C960.017 186.52 959.584 186.687 959.13 187.02C958.69 187.353 958.304 187.933 957.97 188.76V195H956.33ZM967.449 195.24C966.849 195.24 966.275 195.127 965.729 194.9C965.195 194.673 964.722 194.347 964.309 193.92C963.895 193.48 963.562 192.947 963.309 192.32C963.069 191.68 962.949 190.96 962.949 190.16C962.949 189.347 963.069 188.627 963.309 188C963.562 187.36 963.895 186.82 964.309 186.38C964.722 185.94 965.195 185.607 965.729 185.38C966.275 185.153 966.849 185.04 967.449 185.04C968.049 185.04 968.615 185.153 969.149 185.38C969.695 185.607 970.175 185.94 970.589 186.38C971.002 186.82 971.329 187.36 971.569 188C971.822 188.627 971.949 189.347 971.949 190.16C971.949 190.96 971.822 191.68 971.569 192.32C971.329 192.947 971.002 193.48 970.589 193.92C970.175 194.347 969.695 194.673 969.149 194.9C968.615 195.127 968.049 195.24 967.449 195.24ZM967.449 193.88C967.862 193.88 968.242 193.793 968.589 193.62C968.935 193.433 969.229 193.18 969.469 192.86C969.722 192.527 969.915 192.133 970.049 191.68C970.182 191.227 970.249 190.72 970.249 190.16C970.249 189.6 970.182 189.093 970.049 188.64C969.915 188.173 969.722 187.773 969.469 187.44C969.229 187.107 968.935 186.853 968.589 186.68C968.242 186.493 967.862 186.4 967.449 186.4C967.035 186.4 966.655 186.493 966.309 186.68C965.962 186.853 965.662 187.107 965.409 187.44C965.169 187.773 964.982 188.173 964.849 188.64C964.715 189.093 964.649 189.6 964.649 190.16C964.649 190.72 964.715 191.227 964.849 191.68C964.982 192.133 965.169 192.527 965.409 192.86C965.662 193.18 965.962 193.433 966.309 193.62C966.655 193.793 967.035 193.88 967.449 193.88ZM977.836 195.24C977.316 195.24 976.876 195.16 976.516 195C976.17 194.84 975.883 194.62 975.656 194.34C975.443 194.06 975.29 193.72 975.196 193.32C975.103 192.92 975.056 192.48 975.056 192V186.62H973.616V185.38L975.136 185.28L975.336 182.56H976.716V185.28H979.336V186.62H976.716V192.02C976.716 192.62 976.823 193.087 977.036 193.42C977.263 193.74 977.656 193.9 978.216 193.9C978.39 193.9 978.576 193.873 978.776 193.82C978.976 193.767 979.156 193.707 979.316 193.64L979.636 194.88C979.37 194.973 979.076 195.053 978.756 195.12C978.45 195.2 978.143 195.24 977.836 195.24ZM985.641 195.24C985.041 195.24 984.467 195.127 983.921 194.9C983.387 194.673 982.914 194.347 982.501 193.92C982.087 193.48 981.754 192.947 981.501 192.32C981.261 191.68 981.141 190.96 981.141 190.16C981.141 189.347 981.261 188.627 981.501 188C981.754 187.36 982.087 186.82 982.501 186.38C982.914 185.94 983.387 185.607 983.921 185.38C984.467 185.153 985.041 185.04 985.641 185.04C986.241 185.04 986.807 185.153 987.341 185.38C987.887 185.607 988.367 185.94 988.781 186.38C989.194 186.82 989.521 187.36 989.761 188C990.014 188.627 990.141 189.347 990.141 190.16C990.141 190.96 990.014 191.68 989.761 192.32C989.521 192.947 989.194 193.48 988.781 193.92C988.367 194.347 987.887 194.673 987.341 194.9C986.807 195.127 986.241 195.24 985.641 195.24ZM985.641 193.88C986.054 193.88 986.434 193.793 986.781 193.62C987.127 193.433 987.421 193.18 987.661 192.86C987.914 192.527 988.107 192.133 988.241 191.68C988.374 191.227 988.441 190.72 988.441 190.16C988.441 189.6 988.374 189.093 988.241 188.64C988.107 188.173 987.914 187.773 987.661 187.44C987.421 187.107 987.127 186.853 986.781 186.68C986.434 186.493 986.054 186.4 985.641 186.4C985.227 186.4 984.847 186.493 984.501 186.68C984.154 186.853 983.854 187.107 983.601 187.44C983.361 187.773 983.174 188.173 983.041 188.64C982.907 189.093 982.841 189.6 982.841 190.16C982.841 190.72 982.907 191.227 983.041 191.68C983.174 192.133 983.361 192.527 983.601 192.86C983.854 193.18 984.154 193.433 984.501 193.62C984.847 193.793 985.227 193.88 985.641 193.88ZM996.029 195.24C995.509 195.24 995.069 195.16 994.709 195C994.362 194.84 994.075 194.62 993.849 194.34C993.635 194.06 993.482 193.72 993.389 193.32C993.295 192.92 993.249 192.48 993.249 192V186.62H991.809V185.38L993.329 185.28L993.529 182.56H994.909V185.28H997.529V186.62H994.909V192.02C994.909 192.62 995.015 193.087 995.229 193.42C995.455 193.74 995.849 193.9 996.409 193.9C996.582 193.9 996.769 193.873 996.969 193.82C997.169 193.767 997.349 193.707 997.509 193.64L997.829 194.88C997.562 194.973 997.269 195.053 996.949 195.12C996.642 195.2 996.335 195.24 996.029 195.24ZM1000.49 199.18C1000.26 199.18 1000.05 199.16 999.866 199.12C999.68 199.093 999.506 199.047 999.346 198.98L999.666 197.68C999.773 197.707 999.893 197.733 1000.03 197.76C1000.16 197.8 1000.29 197.82 1000.41 197.82C1000.97 197.82 1001.42 197.62 1001.77 197.22C1002.13 196.833 1002.41 196.34 1002.61 195.74L1002.83 195.02L998.926 185.28H1000.63L1002.61 190.66C1002.75 191.087 1002.91 191.54 1003.07 192.02C1003.24 192.487 1003.4 192.947 1003.55 193.4H1003.63C1003.77 192.96 1003.91 192.5 1004.05 192.02C1004.18 191.54 1004.31 191.087 1004.45 190.66L1006.19 185.28H1007.79L1004.13 195.8C1003.95 196.28 1003.76 196.727 1003.55 197.14C1003.33 197.553 1003.08 197.907 1002.79 198.2C1002.49 198.507 1002.16 198.747 1001.79 198.92C1001.41 199.093 1000.98 199.18 1000.49 199.18ZM1010.26 199.1V185.28H1011.62L1011.76 186.4H1011.82C1012.26 186.027 1012.74 185.707 1013.26 185.44C1013.8 185.173 1014.35 185.04 1014.92 185.04C1015.55 185.04 1016.1 185.16 1016.58 185.4C1017.06 185.627 1017.46 185.96 1017.78 186.4C1018.1 186.827 1018.34 187.347 1018.5 187.96C1018.68 188.56 1018.76 189.24 1018.76 190C1018.76 190.827 1018.65 191.567 1018.42 192.22C1018.2 192.86 1017.89 193.407 1017.5 193.86C1017.12 194.313 1016.67 194.66 1016.16 194.9C1015.66 195.127 1015.12 195.24 1014.56 195.24C1014.11 195.24 1013.66 195.14 1013.2 194.94C1012.76 194.74 1012.32 194.467 1011.86 194.12L1011.9 195.82V199.1H1010.26ZM1014.28 193.86C1014.68 193.86 1015.05 193.773 1015.38 193.6C1015.73 193.413 1016.02 193.16 1016.26 192.84C1016.52 192.507 1016.71 192.1 1016.84 191.62C1016.99 191.14 1017.06 190.6 1017.06 190C1017.06 189.467 1017.02 188.98 1016.92 188.54C1016.83 188.1 1016.68 187.727 1016.46 187.42C1016.26 187.1 1016 186.853 1015.66 186.68C1015.34 186.507 1014.96 186.42 1014.5 186.42C1014.09 186.42 1013.67 186.533 1013.24 186.76C1012.83 186.987 1012.38 187.313 1011.9 187.74V192.84C1012.34 193.213 1012.77 193.48 1013.18 193.64C1013.6 193.787 1013.96 193.86 1014.28 193.86ZM1025.9 195.24C1025.24 195.24 1024.63 195.127 1024.06 194.9C1023.5 194.66 1023 194.327 1022.58 193.9C1022.16 193.46 1021.84 192.927 1021.6 192.3C1021.36 191.673 1021.24 190.96 1021.24 190.16C1021.24 189.36 1021.36 188.647 1021.6 188.02C1021.85 187.38 1022.18 186.84 1022.58 186.4C1022.99 185.96 1023.46 185.627 1023.98 185.4C1024.5 185.16 1025.04 185.04 1025.6 185.04C1026.21 185.04 1026.76 185.147 1027.24 185.36C1027.73 185.573 1028.14 185.88 1028.46 186.28C1028.79 186.68 1029.04 187.16 1029.22 187.72C1029.39 188.28 1029.48 188.907 1029.48 189.6C1029.48 189.773 1029.47 189.947 1029.46 190.12C1029.46 190.28 1029.44 190.42 1029.42 190.54H1022.86C1022.92 191.58 1023.24 192.407 1023.82 193.02C1024.4 193.62 1025.16 193.92 1026.1 193.92C1026.56 193.92 1026.99 193.853 1027.38 193.72C1027.78 193.573 1028.16 193.387 1028.52 193.16L1029.1 194.24C1028.67 194.507 1028.2 194.74 1027.68 194.94C1027.16 195.14 1026.56 195.24 1025.9 195.24ZM1022.84 189.36H1028.04C1028.04 188.373 1027.82 187.627 1027.4 187.12C1026.98 186.6 1026.4 186.34 1025.64 186.34C1025.29 186.34 1024.96 186.407 1024.64 186.54C1024.33 186.673 1024.05 186.873 1023.8 187.14C1023.54 187.393 1023.33 187.707 1023.16 188.08C1023 188.453 1022.89 188.88 1022.84 189.36Z" fill="#232323"/>
<path d="M276.354 72.3536C276.549 72.1583 276.549 71.8417 276.354 71.6464L273.172 68.4645C272.976 68.2692 272.66 68.2692 272.464 68.4645C272.269 68.6597 272.269 68.9763 272.464 69.1716L275.293 72L272.464 74.8284C272.269 75.0237 272.269 75.3403 272.464 75.5355C272.66 75.7308 272.976 75.7308 273.172 75.5355L276.354 72.3536ZM150 72.5H276V71.5H150V72.5Z" fill="black"/>
<path d="M585.354 72.3536C585.549 72.1583 585.549 71.8417 585.354 71.6464L582.172 68.4645C581.976 68.2692 581.66 68.2692 581.464 68.4645C581.269 68.6597 581.269 68.9763 581.464 69.1716L584.293 72L581.464 74.8284C581.269 75.0237 581.269 75.3403 581.464 75.5355C581.66 75.7308 581.976 75.7308 582.172 75.5355L585.354 72.3536ZM459 72.5H585V71.5H459V72.5Z" fill="black"/>
<path d="M908.354 72.3536C908.549 72.1583 908.549 71.8417 908.354 71.6464L905.172 68.4645C904.976 68.2692 904.66 68.2692 904.464 68.4645C904.269 68.6597 904.269 68.9763 904.464 69.1716L907.293 72L904.464 74.8284C904.269 75.0237 904.269 75.3403 904.464 75.5355C904.66 75.7308 904.976 75.7308 905.172 75.5355L908.354 72.3536ZM782 72.5H908V71.5H782V72.5Z" fill="black"/>
<defs>
<clipPath id="clip0">
<rect width="116" height="116" fill="white" transform="translate(13 11)"/>
</clipPath>
<clipPath id="clip1">
<rect width="119" height="119" fill="white" transform="translate(927 20)"/>
</clipPath>
</defs>
</svg>
